<?xml version="1.0" encoding="utf-8"?>
<svg version="1.1" xmlns="http://www.w3.org/2000/svg" width="1250" height="558">
  <path d="M0 0 C2.97922593 -0.02683987 5.95821295 -0.04676037 8.9375 -0.0625 C9.78763672 -0.07087891 10.63777344 -0.07925781 11.51367188 -0.08789062 C12.32255859 -0.09111328 13.13144531 -0.09433594 13.96484375 -0.09765625 C15.08814087 -0.10551147 15.08814087 -0.10551147 16.23413086 -0.11352539 C18 0 18 0 19 1 C19.10356787 3.16841256 19.13523668 5.3402607 19.14044189 7.51113892 C19.14489858 8.5439765 19.14489858 8.5439765 19.1494453 9.5976795 C19.15816952 11.92271635 19.15964375 14.24770194 19.16113281 16.57275391 C19.16575887 18.23327241 19.17078324 19.89378985 19.17617798 21.55430603 C19.18933645 26.08196867 19.19575523 30.60961646 19.20018864 35.13729525 C19.2031177 37.96950639 19.2072225 40.80171347 19.21169281 43.63392258 C19.22538534 52.50422829 19.23503976 61.37452471 19.2388947 70.24484026 C19.24336067 80.46475032 19.26083286 90.68452563 19.2898953 100.90439475 C19.31159327 108.81116843 19.32160352 116.71790447 19.32293582 124.62470758 C19.32397933 129.34189487 19.32978805 134.05895582 19.34775543 138.7761116 C19.36437366 143.22648456 19.36632574 147.67663818 19.35761642 152.12703133 C19.35685297 153.74942047 19.36109591 155.37182205 19.37107468 156.99418068 C19.46661356 173.51408649 18.15597326 190.54753959 6 203 C-2.07064721 209.53338107 -12.60190531 212.11851832 -22.82447147 212.13142776 C-23.97095443 212.13526891 -25.11743738 212.13911005 -26.29866225 212.1430676 C-27.54854868 212.14220112 -28.79843512 212.14133463 -30.0861969 212.14044189 C-31.43504561 212.1430275 -32.78389355 212.1460412 -34.13274044 212.1494453 C-37.83380644 212.1574958 -41.53485303 212.15930378 -45.23592675 212.16004276 C-49.22997755 212.16189675 -53.22401835 212.16944587 -57.21806335 212.17617798 C-65.94970603 212.18974851 -74.68134411 212.19578418 -83.41299558 212.20018864 C-88.86825167 212.20295353 -94.32350601 212.20719136 -99.77876091 212.21169281 C-114.89147232 212.22388438 -130.00418232 212.23418354 -145.11689854 212.2375679 C-146.08379399 212.23778747 -147.05068945 212.23800703 -148.04688477 212.23823325 C-149.01605814 212.23845153 -149.98523151 212.23866981 -150.98377377 212.2388947 C-152.94759723 212.23933816 -154.91142068 212.23978473 -156.87524414 212.24023438 C-157.84936274 212.2404558 -158.82348134 212.24067723 -159.82711869 212.24090537 C-175.60276734 212.24485135 -191.37836974 212.26229975 -207.15400053 212.2855939 C-223.36202295 212.30933271 -239.5700222 212.32177092 -255.77806228 212.32293582 C-264.8736132 212.32385122 -273.96910386 212.32956935 -283.06463814 212.34775543 C-290.81153183 212.36319066 -298.55834665 212.36825678 -306.3052528 212.36001733 C-310.25420906 212.35612276 -314.20300668 212.35698167 -318.15194321 212.37107468 C-321.77498758 212.38388576 -325.39775525 212.38255362 -329.02079963 212.37048396 C-330.93558891 212.36762601 -332.8503833 212.37940796 -334.76513392 212.39190602 C-347.65168806 212.31899654 -360.57903518 210.44950699 -370.03125 200.9609375 C-378.32805472 191.01180302 -380.12842166 180.44418392 -380.20532227 167.86376953 C-380.21522186 166.8582756 -380.22512146 165.85278168 -380.23532104 164.81681824 C-380.26681555 161.50550664 -380.29164575 158.19418072 -380.31640625 154.8828125 C-380.33698618 152.58209874 -380.35798293 150.28138868 -380.37937927 147.98068237 C-380.43449257 141.93419389 -380.48394915 135.8876719 -380.53222656 129.84112549 C-380.58252011 123.66749093 -380.63816514 117.49390485 -380.69335938 111.3203125 C-380.80080953 99.21358312 -380.90228358 87.10681158 -381 75 C-383.31 74.34 -385.62 73.68 -388 73 C-388.33 70.69 -388.66 68.38 -389 66 C-383.96102476 62.88627898 -378.26116951 63.66549862 -372.52783203 63.68432617 C-370.50628939 63.68749016 -368.48620609 63.66399422 -366.46484375 63.63867188 C-364.54865234 63.63770508 -364.54865234 63.63770508 -362.59375 63.63671875 C-361.42521484 63.63373779 -360.25667969 63.63075684 -359.05273438 63.62768555 C-355.72895215 64.03305726 -354.3335592 64.63434378 -352 67 C-351.5625 69.5625 -351.5625 69.5625 -352 72 C-355.18762365 74.12508244 -357.26512223 74.5020163 -361 75 C-361.0696355 88.38717523 -361.12288014 101.77430707 -361.15543652 115.16162682 C-361.17106514 121.37848706 -361.19225236 127.595223 -361.22631836 133.81201172 C-361.25901152 139.81611979 -361.27687409 145.82010861 -361.28463173 151.82429886 C-361.29015736 154.11032614 -361.30094745 156.3963472 -361.31719017 158.68232346 C-361.33909651 161.89431406 -361.34196138 165.10581732 -361.34057617 168.31787109 C-361.351362 169.25439514 -361.36214783 170.19091919 -361.3732605 171.15582275 C-361.33294119 179.84559433 -359.66910215 188.16372976 -354 195 C-347.99307434 199.46668831 -341.71460278 199.1401523 -334.54296875 199.09765625 C-333.64000565 199.0962413 -332.73704254 199.09482635 -331.80671692 199.09336853 C-328.93361037 199.08778823 -326.06058284 199.07523934 -323.1875 199.0625 C-321.23502717 199.05748245 -319.28255311 199.05291999 -317.33007812 199.04882812 C-312.55335515 199.03782525 -307.77669096 199.02057418 -303 199 C-303.46615723 198.49936035 -303.93231445 197.9987207 -304.41259766 197.48291016 C-308.17237508 193.33766505 -311.0978348 189.54580054 -313.375 184.375 C-313.85710937 183.31023437 -314.33921875 182.24546875 -314.8359375 181.1484375 C-316.98436526 175.33758925 -317.18205759 169.7422715 -317.1875 163.625 C-317.19974609 162.90828125 -317.21199219 162.1915625 -317.22460938 161.453125 C-317.24633757 153.42817748 -315.30784438 147.05146979 -311.6875 139.875 C-310.82705078 138.13863281 -310.82705078 138.13863281 -309.94921875 136.3671875 C-304.06121792 126.19593155 -294.8755008 120.0686714 -284 116 C-283.14921875 115.64292969 -282.2984375 115.28585938 -281.421875 114.91796875 C-267.96257322 111.30731131 -250.40536025 112.7894568 -238.21484375 119.54296875 C-235.65748809 121.22858628 -233.33463105 123.01922418 -231 125 C-229.92105469 125.89525391 -229.92105469 125.89525391 -228.8203125 126.80859375 C-219.50683994 135.26100942 -215.69505847 146.23896143 -214.8203125 158.5234375 C-214.35480984 174.91947563 -220.31905659 186.79320753 -231 199 C-213.51 199 -196.02 199 -178 199 C-180.31 195.7 -182.62 192.4 -185 189 C-189.1981011 177.48907764 -189.35774837 166.49096743 -185 155 C-184.34 155 -183.68 155 -183 155 C-182.90589844 154.26394531 -182.81179688 153.52789062 -182.71484375 152.76953125 C-181.89467004 149.59191836 -180.75090067 148.10338515 -178.5625 145.6875 C-177.63630859 144.64142578 -177.63630859 144.64142578 -176.69140625 143.57421875 C-175 142 -175 142 -173 142 C-173 141.34 -173 140.68 -173 140 C-160.54973311 129.70127693 -144.37089615 130.64136451 -129.19659424 130.88876343 C-123.86957293 130.971601 -118.5424225 130.99567219 -113.21484375 131.015625 C-111.63830017 131.02187141 -111.63830017 131.02187141 -110.02990723 131.02824402 C-101.03834101 131.04253463 -92.09743345 130.75861993 -83.125 130.1875 C-81.917229 130.11716553 -80.70945801 130.04683105 -79.46508789 129.97436523 C-71.16600326 129.37812032 -62.25183182 128.48589376 -55.5625 123.0625 C-54.94503906 122.57910156 -54.32757812 122.09570312 -53.69140625 121.59765625 C-51.86831162 119.87561074 -50.44458078 118.04538502 -49 116 C-47.02 116.66 -45.04 117.32 -43 118 C-43.38677157 125.34865985 -48.04682371 131.07023557 -52 137 C-52.66 137 -53.32 137 -54 137 C-54.33 137.99 -54.66 138.98 -55 140 C-56.6015625 141.5 -56.6015625 141.5 -58.625 143 C-59.27726562 143.495 -59.92953125 143.99 -60.6015625 144.5 C-73.63753149 152.65278843 -89.23820809 152.276968 -104.0625 152.25 C-104.78814148 152.24922455 -105.51378296 152.2484491 -106.26141357 152.24765015 C-119.24101903 152.20752517 -119.24101903 152.20752517 -124.328125 151.5 C-137.46283926 149.71144317 -154.50713343 148.83766934 -166.1875 155.9375 C-170.24878928 162.79967844 -170.51810822 169.97948624 -169 177.6875 C-166.48177799 186.90993587 -162.16771814 193.06854754 -154 198 C-150.94126065 199.01957978 -148.86006858 199.13056965 -145.65733337 199.14044189 C-144.54857849 199.14615204 -143.43982361 199.15186218 -142.29747009 199.15774536 C-141.08031815 199.15886322 -139.8631662 199.15998108 -138.60913086 199.16113281 C-136.6867308 199.16858017 -136.6867308 199.16858017 -134.72549438 199.17617798 C-131.20651829 199.18929794 -127.68756129 199.19574689 -124.16856456 199.20018864 C-121.96722264 199.20312183 -119.7658859 199.20722725 -117.56454659 199.21169281 C-110.66928727 199.22537068 -103.77403984 199.23503422 -96.87876791 199.2388947 C-88.93464171 199.2433673 -80.99068828 199.26087665 -73.04661459 199.2898953 C-66.89782518 199.31157109 -60.74908415 199.32160222 -54.60025698 199.32293582 C-50.93232457 199.32398023 -47.2645545 199.32980924 -43.59666252 199.34775543 C-39.496547 199.36742491 -35.39678851 199.36292376 -31.29663086 199.35644531 C-30.09364853 199.3656601 -28.8906662 199.37487488 -27.65122986 199.3843689 C-20.93466329 199.35122242 -14.09792172 199.14235442 -8 196 C-7.67 195.01 -7.34 194.02 -7 193 C-6.34 193 -5.68 193 -5 193 C-4.51490207 191.62708132 -4.03724487 190.25153297 -3.5625 188.875 C-3.16224609 187.72644531 -3.16224609 187.72644531 -2.75390625 186.5546875 C-1.1774937 181.21285431 -0.86918435 176.07191629 -0.84178162 170.52090454 C-0.83437465 169.42290624 -0.83437465 169.42290624 -0.82681805 168.30272615 C-0.81151761 165.86148758 -0.80310276 163.42027515 -0.79467773 160.97900391 C-0.78509334 159.2244443 -0.77508293 157.46988697 -0.76467896 155.71533203 C-0.73768463 150.95965528 -0.71664548 146.20396867 -0.69667697 141.44825792 C-0.67478361 136.47544597 -0.64741133 131.50266425 -0.62062073 126.52987671 C-0.57073911 117.11652897 -0.52578349 107.70316442 -0.48259836 98.28978384 C-0.43318724 87.57156989 -0.37828349 76.85338628 -0.32291877 66.13520169 C-0.20916829 44.09016274 -0.10231418 22.0450948 0 0 Z M-290.1875 135.3125 C-298.0378944 144.90970991 -297.93525154 157.17046968 -297 169 C-295.05773658 179.76568869 -290.38429857 187.95469746 -281.81640625 194.74609375 C-274.03788193 200.11578473 -265.07859961 199.94945514 -256 199 C-248.06930097 196.71229836 -242.85959538 191.99955748 -238.8203125 184.9375 C-234.5637786 176.23801465 -233.34772366 167.48053708 -235 158 C-235.15275391 156.68708984 -235.15275391 156.68708984 -235.30859375 155.34765625 C-236.72537931 144.93355207 -241.85981076 136.62659396 -250 130 C-262.56296088 122.3083913 -280.32252712 124.50223487 -290.1875 135.3125 Z " fill="#1B1442" transform="translate(632,133)"/>
  <path d="M0 0 C2.85964452 0.33755269 3.89308652 0.88693954 5.90234375 3.01171875 C6.57394531 3.89472656 7.24554687 4.77773438 7.9375 5.6875 C11.64414251 10.39279164 15.5224398 14.82379843 19.625 19.1875 C20.75275609 20.3904826 21.88036481 21.59360336 23.0078125 22.796875 C23.53149414 23.35568359 24.05517578 23.91449219 24.59472656 24.49023438 C27.94692756 28.09169562 31.13901155 31.82929861 34.34082031 35.56396484 C40.35885642 42.57592999 46.41980864 49.51706304 52.75 56.25 C57.34089706 61.13506312 61.67809941 66.14279424 65.8515625 71.39453125 C68.86147163 75.04473015 72.13734616 78.42823084 75.4453125 81.80859375 C77 84 77 84 76.93359375 86.05078125 C75.85983557 88.29264456 74.60351001 89.90675488 72.9375 91.75 C72.38964844 92.36359375 71.84179688 92.9771875 71.27734375 93.609375 C70.85582031 94.06828125 70.43429687 94.5271875 70 95 C65.41655968 94.16068355 63.23145385 91.43130809 60.25 88.0625 C59.74339844 87.51142578 59.23679687 86.96035156 58.71484375 86.39257812 C55 82.27220561 55 82.27220561 55 80 C54.34 80 53.68 80 53 80 C51.54597658 78.3623728 50.16151322 76.66265804 48.8125 74.9375 C45.60926041 70.92960663 42.34967867 67.22391665 38.66796875 63.66015625 C36.30039693 61.30367376 34.14637886 58.78171677 31.96484375 56.25390625 C29.59381879 53.53406251 27.17684288 50.85742422 24.75 48.1875 C23.91984375 47.27355469 23.0896875 46.35960937 22.234375 45.41796875 C20.52468154 43.56779348 18.80104595 41.76011308 17 40 C16.54625 40.66 16.0925 41.32 15.625 42 C14.820625 42.99 14.820625 42.99 14 44 C13.34 44 12.68 44 12 44 C11.76410156 44.55558594 11.52820313 45.11117187 11.28515625 45.68359375 C9.6872248 48.56375591 7.694995 50.66369076 5.4375 53.0625 C2.0046517 56.75363459 -1.27938092 60.50410259 -4.4375 64.4375 C-8.09506264 68.97236161 -11.94617027 73.25536183 -15.91162109 77.51708984 C-19.71398807 81.62779276 -23.24270592 85.92275584 -26.75390625 90.28515625 C-29.0883059 93.10673495 -31.51990598 95.80590712 -34 98.5 C-37.29331699 102.07792463 -40.44651321 105.71539666 -43.5 109.5 C-47.33719031 114.25595419 -51.39385101 118.75504801 -55.53125 123.25 C-57.94378104 125.93737634 -60.2325621 128.68965444 -62.5 131.5 C-65.55348679 135.28460334 -68.70668301 138.92207537 -72 142.5 C-77.47656191 148.45352531 -82.58229455 154.68202092 -87.6015625 161.0234375 C-88.69313765 162.38311883 -89.83940939 163.69873174 -91 165 C-91.66 165 -92.32 165 -93 165 C-93.3403125 165.804375 -93.3403125 165.804375 -93.6875 166.625 C-97.1489054 172.88849549 -97.1489054 172.88849549 -100 175 C-103.66723213 175.8384825 -107.24315728 175.69918226 -110.98828125 175.5859375 C-112.57578438 175.57320297 -112.57578438 175.57320297 -114.19535828 175.56021118 C-117.56878337 175.52667946 -120.93979999 175.45139566 -124.3125 175.375 C-126.60217897 175.34490033 -128.89189549 175.31752454 -131.18164062 175.29296875 C-136.78857929 175.22688922 -142.39411758 175.12654233 -148 175 C-148.24313298 171.09753056 -148.22826781 170.29122492 -145.69140625 167.0546875 C-144.65959473 165.98392703 -143.61585975 164.92456955 -142.5625 163.875 C-141.4492949 162.72118371 -140.33864312 161.56489888 -139.23046875 160.40625 C-138.40361572 159.54580078 -138.40361572 159.54580078 -137.56005859 158.66796875 C-135.37560943 156.33241997 -133.37258118 153.8710799 -131.375 151.375 C-127.53263934 146.59293157 -123.47658862 142.05656123 -119.328125 137.5390625 C-115.19131313 133.02743881 -111.19389177 128.40014509 -107.21875 123.74609375 C-106.1875417 122.53902687 -105.15629052 121.33199663 -104.125 120.125 C-103.60526611 119.51640137 -103.08553223 118.90780273 -102.55004883 118.28076172 C-99.52094405 114.74357043 -96.44843697 111.25598946 -93.3125 107.8125 C-90.28287132 104.47772886 -87.39391908 101.06712361 -84.5625 97.5625 C-80.70174863 92.788597 -76.62562925 88.26611572 -72.46875 83.75 C-69.28038622 80.1984049 -66.3030533 76.49630142 -63.30859375 72.78125 C-60.02921505 68.83045874 -56.55992789 65.07391297 -53.06640625 61.3125 C-50.88630363 58.98197309 -50.88630363 58.98197309 -49 56 C-48.34 56 -47.68 56 -47 56 C-46.72599365 55.40832031 -46.4519873 54.81664062 -46.16967773 54.20703125 C-45.04348203 52.08204499 -43.86440667 50.49020642 -42.28515625 48.6875 C-41.76373047 48.08679688 -41.24230469 47.48609375 -40.70507812 46.8671875 C-40.16302734 46.25101563 -39.62097656 45.63484375 -39.0625 45 C-37.98976315 43.77181266 -36.91811687 42.54267176 -35.84765625 41.3125 C-35.34766113 40.74015625 -34.84766602 40.1678125 -34.33251953 39.578125 C-33.24335897 38.28821407 -32.23213303 36.93285304 -31.24609375 35.5625 C-30.62927734 34.7890625 -30.62927734 34.7890625 -30 34 C-29.34 34 -28.68 34 -28 34 C-27.75765625 33.43796875 -27.5153125 32.8759375 -27.265625 32.296875 C-25.7498937 29.54610337 -23.89611758 27.54211197 -21.75 25.25 C-18.3529945 21.55357895 -15.27953418 17.78850849 -12.328125 13.734375 C-10.43593593 11.26339868 -8.2258673 9.17022062 -6 7 C-3.96333342 4.69726059 -1.97532755 2.35545931 0 0 Z " fill="#B7965B" transform="translate(655,25)"/>
  <path d="M0 0 C0.95938477 0.00829834 1.91876953 0.01659668 2.90722656 0.02514648 C15.41692416 0.32054355 25.55411233 3.21119809 35.25 11.4375 C36.32894531 12.33275391 36.32894531 12.33275391 37.4296875 13.24609375 C47.47399364 22.36177536 50.84132888 34.05710538 51.51171875 47.1875 C51.63431828 49.81979849 51.75064612 52.45231296 51.86547852 55.08496094 C52.44622809 69.29173575 52.44622809 69.29173575 59.25 81.4375 C63.48924762 84.35787058 68.10116988 85.62653048 73.25 85.4375 C76.67407927 84.66952794 79.95289039 83.63337787 83.25 82.4375 C83.25 81.7775 83.25 81.1175 83.25 80.4375 C83.683125 80.045625 84.11625 79.65375 84.5625 79.25 C91.96068052 71.30380611 91.54827211 57.76877558 91.4453125 47.64453125 C91.4424826 46.57248947 91.43965271 45.50044769 91.43673706 44.3959198 C91.42565375 41.0138269 91.40057195 37.63201116 91.375 34.25 C91.36495487 31.93945698 91.35583172 29.62890976 91.34765625 27.31835938 C91.32575341 21.69131368 91.29239627 16.06442665 91.25 10.4375 C90.156875 10.47875 89.06375 10.52 87.9375 10.5625 C84.25 10.4375 84.25 10.4375 81.25 8.4375 C80.9375 5.4375 80.9375 5.4375 81.25 2.4375 C84.15441659 -0.46691659 86.31757845 0.17882264 90.375 0.171875 C91.0777002 0.16996155 91.78040039 0.1680481 92.50439453 0.16607666 C93.99056354 0.16471525 95.47674445 0.16840868 96.96289062 0.17675781 C99.24115646 0.18745846 101.51863377 0.17686161 103.796875 0.1640625 C105.23958508 0.1653841 106.68229466 0.16794651 108.125 0.171875 C109.44242188 0.17413086 110.75984375 0.17638672 112.1171875 0.17871094 C115.25 0.4375 115.25 0.4375 117.25 2.4375 C117.91 1.7775 118.57 1.1175 119.25 0.4375 C121.73566543 0.23801443 124.1075075 0.15760257 126.59375 0.171875 C127.68109436 0.16900482 127.68109436 0.16900482 128.79040527 0.16607666 C130.32365262 0.16471513 131.8569115 0.16840936 133.39013672 0.17675781 C135.74082259 0.18745822 138.09074423 0.17686192 140.44140625 0.1640625 C141.92968919 0.1653841 143.41797166 0.16794651 144.90625 0.171875 C145.61148804 0.16782654 146.31672607 0.16377808 147.04333496 0.15960693 C152.02007514 0.20757514 152.02007514 0.20757514 154.25 2.4375 C154.625 4.875 154.625 4.875 154.25 7.4375 C151.97285584 9.63612195 150.27076303 10.43057899 147.25 11.4375 C147.23969254 12.2900386 147.22938507 13.14257721 147.21876526 14.02095032 C147.120359 22.0967477 147.01778767 30.1724795 146.91066074 38.24816608 C146.85574337 42.3988994 146.80237728 46.54964003 146.75268555 50.70043945 C146.70457693 54.71405153 146.65222478 58.72758879 146.59705925 62.74110985 C146.57684403 64.2643056 146.55809981 65.78752169 146.54092598 67.31075478 C146.16387395 100.39356192 146.16387395 100.39356192 134.25 112.4375 C125.27417179 119.89693403 115.12711549 123.61526128 104.25 127.4375 C103.92 125.7875 103.59 124.1375 103.25 122.4375 C104.57064453 121.45910156 104.57064453 121.45910156 105.91796875 120.4609375 C107.0914261 119.57849757 108.26458745 118.69566393 109.4375 117.8125 C110.01564453 117.38582031 110.59378906 116.95914063 111.18945312 116.51953125 C118.67478425 110.8526704 124.44903481 103.86513628 126.25 94.4375 C127.44746024 84.82404058 127.3813137 75.18292271 127.34765625 65.515625 C127.34578648 63.91851852 127.34436523 62.32141146 127.34336853 60.7243042 C127.33958729 56.56187296 127.32979562 52.39947775 127.31866455 48.23706055 C127.30835489 43.97314948 127.30385063 39.70923249 127.29882812 35.4453125 C127.28816849 27.10935864 127.27114624 18.77343383 127.25 10.4375 C126.30898437 10.458125 125.36796875 10.47875 124.3984375 10.5 C121.29924313 10.43847753 119.84083055 10.03185726 117.25 8.4375 C116.26 9.0975 115.27 9.7575 114.25 10.4375 C112.93 10.4375 111.61 10.4375 110.25 10.4375 C110.25444122 10.98714417 110.25888245 11.53678833 110.26345825 12.10308838 C110.30807357 17.87924572 110.33802311 23.65535327 110.35986328 29.43164062 C110.36985464 31.58074943 110.38345231 33.72984487 110.40087891 35.87890625 C110.58187655 58.79107841 110.58187655 58.79107841 108.25 68.4375 C108.03738525 69.3435498 107.82477051 70.24959961 107.60571289 71.18310547 C106.08798004 77.30175279 103.39886783 82.65301175 99.25 87.4375 C98.59 87.4375 97.93 87.4375 97.25 87.4375 C97.25 88.0975 97.25 88.7575 97.25 89.4375 C89.49717383 95.72026433 80.35158583 97.80630147 70.625 98.8125 C61.85353931 97.83789326 53.9640331 95.38895157 47.25 89.4375 C47.25 88.7775 47.25 88.1175 47.25 87.4375 C45.765 86.9425 45.765 86.9425 44.25 86.4375 C41.25 82.10416667 41.25 82.10416667 41.25 79.4375 C40.73050781 79.89640625 40.21101563 80.3553125 39.67578125 80.828125 C38.97839844 81.44171875 38.28101562 82.0553125 37.5625 82.6875 C36.87800781 83.29078125 36.19351563 83.8940625 35.48828125 84.515625 C26.08829256 92.58681948 16.69604498 97.33777934 4.25 98.4375 C3.52683594 98.50839844 2.80367187 98.57929688 2.05859375 98.65234375 C-10.79758818 99.26221955 -22.25160304 95.66276491 -32.75 88.4375 C-34.235 87.4475 -34.235 87.4475 -35.75 86.4375 C-35.75 85.7775 -35.75 85.1175 -35.75 84.4375 C-36.74 84.1075 -37.73 83.7775 -38.75 83.4375 C-49.39797988 69.82697733 -51.90488155 57.32764269 -50.75 40.4375 C-50.14365494 37.17393687 -49.16741271 34.42652094 -47.75 31.4375 C-47.21052734 30.18453125 -47.21052734 30.18453125 -46.66015625 28.90625 C-45.71873072 26.73527583 -44.7489496 24.5824527 -43.75 22.4375 C-43.09 22.4375 -42.43 22.4375 -41.75 22.4375 C-41.49089844 21.69371094 -41.23179688 20.94992187 -40.96484375 20.18359375 C-37.30141269 11.90259042 -28.78317153 6.86727978 -20.75 3.4375 C-13.77868043 0.84645165 -7.41772444 -0.08336735 0 0 Z M-23.875 21.6875 C-29.80962415 28.91889292 -30.92944726 36.5940361 -30.9375 45.75 C-30.94974609 46.47123047 -30.96199219 47.19246094 -30.97460938 47.93554688 C-31.00299088 58.4840059 -27.61394867 68.81833564 -20.63671875 76.87890625 C-12.89787166 84.1365815 -6.25458298 85.97518928 4.24194336 85.92797852 C11.47014417 85.64967798 16.76556658 83.63218309 22.08203125 78.7578125 C29.79734159 70.31039242 32.59088058 58.47083543 32.16503906 47.18603516 C31.03748324 36.06833471 27.3828841 26.67720163 19.14453125 18.94140625 C6.63924838 9.01453222 -12.96672947 9.73907654 -23.875 21.6875 Z " fill="#1B1442" transform="translate(85.75,246.5625)"/>
  <path d="M0 0 C2.02154264 0.00316398 4.04162594 -0.02033195 6.06298828 -0.0456543 C7.97917969 -0.04662109 7.97917969 -0.04662109 9.93408203 -0.04760742 C11.10261719 -0.05058838 12.27115234 -0.05356934 13.47509766 -0.05664062 C16.79887988 0.34873109 18.19427283 0.95001761 20.52783203 3.31567383 C20.96533203 5.87817383 20.96533203 5.87817383 20.52783203 8.31567383 C17.34020838 10.44075626 15.26270981 10.81769012 11.52783203 11.31567383 C11.45819653 24.70284906 11.40495189 38.0899809 11.37239552 51.47730064 C11.35676689 57.69416088 11.33557967 63.91089683 11.30151367 70.12768555 C11.26882051 76.13179362 11.25095794 82.13578244 11.2432003 88.13997269 C11.23767467 90.42599997 11.22688458 92.71202103 11.21064186 94.99799728 C11.18873552 98.20998789 11.18587065 101.42149115 11.18725586 104.63354492 C11.17647003 105.57006897 11.1656842 106.50659302 11.15457153 107.47149658 C11.19489084 116.16126816 12.85872988 124.47940359 18.52783203 131.31567383 C22.40925609 134.44237654 26.59288621 135.4889746 31.52783203 135.31567383 C35.27251932 134.54005918 38.8928293 133.49838611 42.52783203 132.31567383 C42.52783203 131.65567383 42.52783203 130.99567383 42.52783203 130.31567383 C43.18783203 130.31567383 43.84783203 130.31567383 44.52783203 130.31567383 C44.81658203 129.57317383 45.10533203 128.83067383 45.40283203 128.06567383 C46.52783203 125.31567383 46.52783203 125.31567383 47.59033203 123.37817383 C49.94621877 118.19522301 49.65063686 112.44734302 49.7668457 106.86303711 C50.17823599 89.10355087 53.99072197 75.42265253 66.52783203 62.31567383 C67.18783203 62.31567383 67.84783203 62.31567383 68.52783203 62.31567383 C68.52783203 61.65567383 68.52783203 60.99567383 68.52783203 60.31567383 C81.96724189 49.90905115 97.18300872 48.93190498 113.52783203 50.31567383 C122.54100915 51.56148065 129.52658209 55.69495205 136.52783203 61.31567383 C137.37216797 61.94344727 138.21650391 62.5712207 139.08642578 63.21801758 C146.33165516 69.44311866 151.80533696 80.05594222 152.75097656 89.55786133 C153.79512045 106.15942185 150.68610529 119.31728561 139.83642578 132.34692383 C130.16282971 142.58163336 118.32971841 147.52761168 104.42236328 148.54223633 C88.1601961 148.97800695 74.54388063 144.38308701 62.52783203 133.31567383 C61.86783203 132.65567383 61.20783203 131.99567383 60.52783203 131.31567383 C60.08052734 131.84676758 59.63322266 132.37786133 59.17236328 132.92504883 C51.82089195 141.51482769 44.6773832 146.71374506 33.21533203 148.25317383 C22.80959622 148.84106851 12.65957592 145.87260816 4.52783203 139.31567383 C-5.39354427 129.35613839 -7.59474455 117.71607238 -7.67749023 104.17944336 C-7.68738983 103.17394943 -7.69728943 102.16845551 -7.70748901 101.13249207 C-7.73898352 97.82118047 -7.76381372 94.50985455 -7.78857422 91.19848633 C-7.80915415 88.89777257 -7.8301509 86.59706251 -7.85154724 84.2963562 C-7.90666054 78.24986772 -7.95611712 72.20334573 -8.00439453 66.15679932 C-8.05468808 59.98316475 -8.11033311 53.80957868 -8.16552734 47.63598633 C-8.2729775 35.52925695 -8.37445155 23.42248541 -8.47216797 11.31567383 C-10.78216797 10.65567383 -13.09216797 9.99567383 -15.47216797 9.31567383 C-15.80216797 7.00567383 -16.13216797 4.69567383 -16.47216797 2.31567383 C-11.43319273 -0.79804719 -5.73333747 -0.01882755 0 0 Z M81.52783203 67.31567383 C81.52783203 67.97567383 81.52783203 68.63567383 81.52783203 69.31567383 C80.92197266 69.54899414 80.31611328 69.78231445 79.69189453 70.02270508 C76.95735731 71.65651703 76.25998336 73.14440022 74.90283203 76.00317383 C74.49806641 76.83204102 74.09330078 77.6609082 73.67626953 78.51489258 C68.83978762 90.30998622 69.09034196 103.39305899 73.52783203 115.31567383 C77.30510853 123.50565651 82.83345629 130.52910841 91.27783203 134.19067383 C98.94420801 136.62037173 108.01507714 137.61765077 115.52783203 134.31567383 C124.21066143 129.71025418 128.91695406 124.18886852 131.90380859 114.89990234 C133.02201748 110.2691351 133.01457265 105.6837964 132.96533203 100.94067383 C132.95775879 99.92352295 132.95018555 98.90637207 132.94238281 97.85839844 C132.70727219 87.17802644 130.30573575 78.07283647 122.52783203 70.31567383 C121.53783203 69.98567383 120.54783203 69.65567383 119.52783203 69.31567383 C119.52783203 68.65567383 119.52783203 67.99567383 119.52783203 67.31567383 C108.25724193 61.93083634 92.31104163 58.68910615 81.52783203 67.31567383 Z " fill="#1B1443" transform="translate(858.47216796875,196.684326171875)"/>
  <path d="M0 0 C2.93902349 -0.13481759 5.87189559 -0.23399416 8.8125 -0.3125 C10.06256836 -0.3753418 10.06256836 -0.3753418 11.33789062 -0.43945312 C13.65781987 -0.48603805 15.72760506 -0.47524178 18 0 C20.00172424 2.37788391 20.00172424 2.37788391 21 5 C21.382771 5.74789795 21.76554199 6.4957959 22.15991211 7.26635742 C22.71304077 8.42421753 22.71304077 8.42421753 23.27734375 9.60546875 C23.70249268 10.49371338 24.1276416 11.38195801 24.56567383 12.29711914 C25.01837646 13.25094482 25.4710791 14.20477051 25.9375 15.1875 C26.41405029 16.18837646 26.89060059 17.18925293 27.3815918 18.22045898 C43.02268054 51.16874691 43.02268054 51.16874691 50 68 C56.31832384 55.5587644 61.90281318 42.97943448 67 30 C67.66 30 68.32 30 69 30 C69.103125 29.154375 69.20625 28.30875 69.3125 27.4375 C70.0828854 23.58557299 71.36274514 20.55924969 73 17 C73.66 17 74.32 17 75 17 C75.061875 16.21625 75.12375 15.4325 75.1875 14.625 C76.2713602 9.78931605 78.40455433 3.59544567 82 0 C84.6773138 -0.09981214 87.32304175 -0.13879875 90 -0.125 C90.75023437 -0.12886719 91.50046875 -0.13273437 92.2734375 -0.13671875 C97.87338947 -0.12661053 97.87338947 -0.12661053 99 1 C99.11368845 3.26188131 99.15689741 5.527317 99.17358398 7.79199219 C99.180271 8.5027742 99.18695801 9.21355621 99.19384766 9.94587708 C99.20793701 11.4965923 99.21981856 13.04732874 99.22979546 14.59807587 C99.2462035 17.06336444 99.26945021 19.5285004 99.29469299 21.99371338 C99.36541009 29.00598497 99.42509994 36.01832498 99.47680664 43.03076172 C99.50890113 47.31790286 99.55026924 51.60487856 99.59700203 55.89188385 C99.61286602 57.51668513 99.6252581 59.14152461 99.63390923 60.76638031 C98.94188106 78.88598358 98.94188106 78.88598358 105 95 C107.70115588 96.08581117 110.09355064 96.52353289 113 97 C113.09765625 103.15234375 113.09765625 103.15234375 113 105 C111.17916036 106.82083964 108.51987883 106.30044708 106.0625 106.375 C98.13578762 106.32273596 92.76559056 103.89660813 86.5625 99.125 C77.94555939 87.40596077 79.61151828 70.02258727 79.375 56.1875 C79.33672495 54.31964516 79.29766808 52.45180616 79.2578125 50.58398438 C79.16287241 46.05612161 79.07847351 41.52817685 79 37 C78.29641357 38.61612183 78.29641357 38.61612183 77.57861328 40.26489258 C76.95089184 41.70395864 76.32312235 43.14300375 75.6953125 44.58203125 C75.38762939 45.28912231 75.07994629 45.99621338 74.76293945 46.72473145 C72.86272687 51.07719465 70.90387833 55.39348285 68.875 59.6875 C66.43417688 64.8594874 64.06796499 70.06214905 61.73828125 75.28515625 C61.30298096 76.26043526 61.30298096 76.26043526 60.85888672 77.25541687 C59.38296753 80.56398138 57.9107887 83.87415733 56.44287109 87.1862793 C55.8929885 88.42109899 55.3430245 89.65588243 54.79296875 90.890625 C54.05856567 92.54626465 54.05856567 92.54626465 53.30932617 94.23535156 C52 97 52 97 50 100 C46.875 100.1875 46.875 100.1875 44 100 C40.99168858 94.88249046 38.33069506 89.68629902 35.8125 84.3125 C35.42594238 83.49233398 35.03938477 82.67216797 34.64111328 81.82714844 C31.43590989 74.99681205 28.3298589 68.12338112 25.25097656 61.23535156 C22.37707268 54.81028666 19.41770384 48.42989347 16.41015625 42.06640625 C15.18514398 39.40259841 14.07674978 36.72574811 13 34 C12.98969254 34.79735565 12.97938507 35.5947113 12.96876526 36.41622925 C12.87089432 43.9209152 12.76839487 51.42551674 12.66066074 58.93006706 C12.60543434 62.78847246 12.55201481 66.64688544 12.50268555 70.50537109 C12.45503779 74.22718122 12.40269486 77.94889809 12.34705925 81.67059708 C12.32663755 83.09237478 12.30792415 84.51417806 12.29092598 85.93600082 C12.26687819 87.92337631 12.23626002 89.91066905 12.20532227 91.89794922 C12.18977798 93.03046112 12.1742337 94.16297302 12.15821838 95.32980347 C12 98 12 98 11 100 C9.35425434 100.02688151 7.70838587 100.04634123 6.0625 100.0625 C5.14597656 100.07410156 4.22945313 100.08570313 3.28515625 100.09765625 C1 100 1 100 0 99 C-0.09532328 95.92545239 -0.1255138 92.87340842 -0.11352539 89.79858398 C-0.11367142 88.83283447 -0.11381744 87.86708496 -0.1139679 86.87207031 C-0.11326834 83.66338901 -0.10547397 80.45476497 -0.09765625 77.24609375 C-0.09579222 75.02791882 -0.09436825 72.80974348 -0.09336853 70.59156799 C-0.08954216 64.74059929 -0.07971086 58.88965523 -0.06866455 53.03869629 C-0.05845299 47.07332696 -0.05387146 41.10795367 -0.04882812 35.14257812 C-0.03808869 23.42837456 -0.02101085 11.71418933 0 0 Z M80 33 C81 35 81 35 81 35 Z " fill="#1B1443" transform="translate(256,392)"/>
  <path d="M0 0 C9.9651802 7.24566368 16.08974692 16.31148776 18.6640625 28.52734375 C21.66433865 47.81981711 24.15122516 76.22587761 14 93.6875 C13.46375 94.656875 12.9275 95.62625 12.375 96.625 C0.5878139 111.82426629 0.5878139 111.82426629 -7.3515625 113.05078125 C-8.10179687 113.03402344 -8.85203125 113.01726562 -9.625 113 C-10.38039063 112.99613281 -11.13578125 112.99226563 -11.9140625 112.98828125 C-14 112.6875 -14 112.6875 -17 110.6875 C-17 109.3675 -17 108.0475 -17 106.6875 C-14.0173094 105.16301369 -11.181798 103.74809933 -8 102.6875 C-6.88688485 100.83156622 -6.88688485 100.83156622 -6 98.6875 C-5.65839844 98.10871094 -5.31679687 97.52992188 -4.96484375 96.93359375 C-1.77728612 91.32203791 -1.23482689 86.07479147 -1 79.6875 C-2.010625 80.450625 -3.02125 81.21375 -4.0625 82 C-15.65759264 90.19293971 -29.91571283 90.97095473 -43.65234375 89.22265625 C-51.47898781 87.78649681 -57.58356577 85.38750927 -64 80.6875 C-64.64582031 80.2234375 -65.29164062 79.759375 -65.95703125 79.28125 C-75.34712734 71.91646875 -81.441258 59.42617434 -83 47.6875 C-83.94008851 33.1408672 -81.6609353 21.64585164 -73 9.6875 C-72.34 9.6875 -71.68 9.6875 -71 9.6875 C-70.7525 9.06875 -70.505 8.45 -70.25 7.8125 C-68.79371361 5.33681313 -67.62187494 4.73624998 -65 3.6875 C-65 3.0275 -65 2.3675 -65 1.6875 C-47.10959825 -12.44712893 -18.59693777 -12.66889909 0 0 Z M-52 8.6875 C-52 9.3475 -52 10.0075 -52 10.6875 C-52.59425781 10.89890625 -53.18851563 11.1103125 -53.80078125 11.328125 C-56.81444599 13.1909231 -57.65441358 15.26885867 -59.1875 18.4375 C-59.69667969 19.46359375 -60.20585938 20.4896875 -60.73046875 21.546875 C-65.15715277 32.49781025 -63.68991527 45.72914786 -60 56.6875 C-56.29800985 64.93336592 -50.77615218 71.82312057 -42.296875 75.34375 C-37.89410189 76.89824011 -33.7713691 77.26444209 -29.125 77.25 C-28.33851074 77.24830811 -27.55202148 77.24661621 -26.74169922 77.24487305 C-18.50262584 76.99074854 -13.27423755 74.04569235 -7.5625 68.1875 C-5.83349056 65.4210849 -4.35949096 62.6536621 -3 59.6875 C-2.62875 58.883125 -2.2575 58.07875 -1.875 57.25 C2.60119944 44.14113021 -0.10174752 30.7374455 -6 18.6875 C-6.42539063 17.67816406 -6.42539063 17.67816406 -6.859375 16.6484375 C-9.95533817 11.32592547 -17.31231579 6.65631377 -23 4.6875 C-33.34589354 3.03271327 -42.78321036 3.35146389 -52 8.6875 Z " fill="#1B1442" transform="translate(1097,255.3125)"/>
  <path d="M0 0 C5.5094273 -0.05027555 11.01871465 -0.08612317 16.52832031 -0.10986328 C18.39390393 -0.11978319 20.25947261 -0.13332334 22.125 -0.15087891 C31.76880855 -0.2392112 41.33004524 -0.17066465 50.9296875 0.83984375 C51.64812836 0.91206146 52.36656921 0.98427917 53.10678101 1.0586853 C61.50860667 2.0625861 68.92730333 5.28665323 74.625 11.625 C79.05542478 17.34427563 80.05838039 22.82894189 80 30 C78.74204596 37.80671481 74.41437177 42.58562823 69 48 C70.19625 48.515625 71.3925 49.03125 72.625 49.5625 C78.43889526 52.49006428 81.92379167 56.35839773 84.375 62.375 C85.85094323 70.93547074 85.49303649 78.74624594 80.55859375 86.16796875 C73.12386202 95.36219615 63.49726857 98.57520473 52 100 C45.97648173 100.40846202 39.9427838 100.35132827 33.90893555 100.28125 C31.14683809 100.24953308 28.38531008 100.24021128 25.62304688 100.234375 C23.86718044 100.22522461 22.11131984 100.2148552 20.35546875 100.203125 C19.11666206 100.19675018 19.11666206 100.19675018 17.85282898 100.19024658 C12.11731565 100.11731565 12.11731565 100.11731565 11 99 C10.88550634 96.33858658 10.83515898 93.70206153 10.82641602 91.03955078 C10.819729 90.20541656 10.81304199 89.37128235 10.80615234 88.51187134 C10.79206791 86.69430142 10.78018477 84.87671345 10.77020454 83.05911636 C10.75384712 80.18492348 10.73061159 77.31086423 10.70530701 74.43673706 C10.63438629 66.26274226 10.57438034 58.08869246 10.52319336 49.91455078 C10.49143827 44.92072405 10.45016958 39.92704953 10.40299797 34.93334579 C10.38695443 33.02674976 10.37464378 31.12011862 10.36609077 29.21347427 C10.35396516 26.54857141 10.32982665 23.88402758 10.30297852 21.21923828 C10.3020948 20.03152832 10.3020948 20.03152832 10.30119324 18.81982422 C10.25033236 15.01875105 10.15988898 13.23983347 8 10 C6.03638136 9.42251197 6.03638136 9.42251197 3.875 9.3125 C2.59625 9.209375 1.3175 9.10625 0 9 C0 6.03 0 3.06 0 0 Z M30 12 C30 22.23 30 32.46 30 43 C43.23945812 43.94375502 43.23945812 43.94375502 55 39 C57.93904849 35.98360813 59.87920146 33.07563106 61 29 C60.68270304 24.87513955 59.09228232 21.54078546 57 18 C56.01 17.67 55.02 17.34 54 17 C54 16.34 54 15.68 54 15 C48.45836568 12.1960655 44.21792427 11.60842285 38.0625 11.8125 C35.401875 11.874375 32.74125 11.93625 30 12 Z M30 55 C30 65.56 30 76.12 30 87 C33.31695548 88.65847774 36.98203371 88.22668502 40.625 88.25 C41.40746094 88.270625 42.18992187 88.29125 42.99609375 88.3125 C49.35597922 88.35468829 54.88327239 87.33606719 60.05859375 83.45703125 C63.82267494 78.96785793 65 75.90161405 65 70 C64.01261446 65.42212159 62.31286998 62.31286998 59 59 C49.98944845 53.95409113 40.14503555 55 30 55 Z " fill="#1B1543" transform="translate(31,392)"/>
  <path d="M0 0 C1.38594529 0.00031696 2.77191535 0.01163319 4.15771484 0.03173828 C4.88735443 0.03456818 5.61699402 0.03739807 6.3687439 0.04031372 C8.70221262 0.05152076 11.03529937 0.07662568 13.36865234 0.10205078 C14.94937597 0.11207993 16.53010561 0.1212059 18.11083984 0.12939453 C21.98859149 0.15146173 25.86605712 0.18599463 29.74365234 0.22705078 C31.80615234 4.94580078 31.80615234 4.94580078 31.24365234 7.47705078 C29.08814022 9.99181492 26.9328122 9.79840026 23.74365234 10.22705078 C23.80515049 17.50373258 23.88245943 24.78007102 23.97936726 32.05637264 C24.02389263 35.43591312 24.0631864 38.815338 24.09008789 42.19506836 C24.1237835 46.09013689 24.17610939 49.98458781 24.23193359 53.87939453 C24.23832352 55.07974838 24.24471344 56.28010223 24.251297 57.51683044 C24.39030779 65.52637689 25.09992424 72.95262601 29.93115234 79.60205078 C34.54025098 83.90387618 38.46135751 85.22705078 44.74365234 85.22705078 C49.98968269 84.25632863 54.65407943 81.76792199 58.06396484 77.62158203 C63.0121872 69.61279252 63.02310985 60.96565226 62.93896484 51.85205078 C62.93472 50.10444458 62.93472 50.10444458 62.9303894 48.3215332 C62.91925042 44.62326516 62.89415713 40.92524486 62.86865234 37.22705078 C62.85861444 34.71012721 62.84949001 32.19319982 62.84130859 29.67626953 C62.81933164 23.52644631 62.78591678 17.37676625 62.74365234 11.22705078 C60.72542318 10.77132161 58.70719401 10.31559245 56.68896484 9.85986328 C54.74365234 9.22705078 54.74365234 9.22705078 52.74365234 7.22705078 C52.49365234 4.72705078 52.49365234 4.72705078 52.74365234 2.22705078 C55.20368022 -0.23297709 56.59159073 -0.01846927 59.95031738 -0.05084229 C60.65555542 -0.04679382 61.36079346 -0.04274536 62.08740234 -0.03857422 C62.81229858 -0.04048767 63.53719482 -0.04240112 64.28405762 -0.04437256 C65.81730496 -0.04573409 67.35056384 -0.04203986 68.88378906 -0.03369141 C71.23447493 -0.02299099 73.58439657 -0.0335873 75.93505859 -0.04638672 C77.42334154 -0.04506512 78.911624 -0.04250271 80.39990234 -0.03857422 C81.10514038 -0.04262268 81.81037842 -0.04667114 82.5369873 -0.05084229 C87.51372749 -0.00287407 87.51372749 -0.00287407 89.74365234 2.22705078 C90.11865234 4.66455078 90.11865234 4.66455078 89.74365234 7.22705078 C87.99365234 9.03955078 87.99365234 9.03955078 85.74365234 10.22705078 C84.42365234 10.22705078 83.10365234 10.22705078 81.74365234 10.22705078 C81.7536451 11.12002365 81.7536451 11.12002365 81.76383972 12.03103638 C81.83082626 18.2940728 81.87571221 24.55700552 81.90844727 30.8203125 C81.92342312 33.14978172 81.94381094 35.47922328 81.9699707 37.80859375 C82.37182031 74.54237577 82.37182031 74.54237577 70.85693359 87.32080078 C62.78213403 94.80863064 54.12564556 97.55596049 43.30615234 98.53955078 C36.02599373 97.90094038 29.0989051 95.83408613 22.74365234 92.22705078 C22.46714844 93.24412109 22.46714844 93.24412109 22.18505859 94.28173828 C18.59500348 105.80182625 11.12276351 113.3636406 0.74365234 119.22705078 C-0.07232422 119.68982422 -0.88830078 120.15259766 -1.72900391 120.62939453 C-7.17154068 123.53152001 -12.18739343 125.15030084 -18.25634766 126.22705078 C-18.56884766 123.97705078 -18.56884766 123.97705078 -18.25634766 121.22705078 C-14.14823955 117.22705078 -14.14823955 117.22705078 -11.25634766 117.22705078 C-11.25634766 116.56705078 -11.25634766 115.90705078 -11.25634766 115.22705078 C-9.61181641 113.64111328 -9.61181641 113.64111328 -7.44384766 111.85205078 C-3.43704345 108.53859157 -0.47924487 105.39123897 1.36865234 100.47705078 C1.60841797 99.86345703 1.84818359 99.24986328 2.09521484 98.61767578 C3.72854963 92.59598367 3.89799521 86.36426265 3.94897461 80.15869141 C3.96382401 79.01577133 3.96382401 79.01577133 3.97897339 77.84976196 C4.01026166 75.36097188 4.03521483 72.8721628 4.06005859 70.38330078 C4.08065644 68.6459507 4.1016536 66.90860531 4.12303162 65.17126465 C4.17796023 60.62084782 4.22749708 56.07038798 4.27587891 51.51989746 C4.32630859 46.86755593 4.38188208 42.21527608 4.43701172 37.56298828 C4.54423545 28.45106194 4.64575836 19.3390818 4.74365234 10.22705078 C3.65052734 10.26830078 2.55740234 10.30955078 1.43115234 10.35205078 C-2.25634766 10.22705078 -2.25634766 10.22705078 -5.25634766 8.22705078 C-5.56884766 5.22705078 -5.56884766 5.22705078 -5.25634766 2.22705078 C-3.25634766 0.22705078 -3.25634766 0.22705078 0 0 Z " fill="#1B1441" transform="translate(1121.25634765625,246.77294921875)"/>
  <path d="M0 0 C5.52773786 -0.05021354 11.05533701 -0.08609548 16.58325195 -0.10986328 C18.45567137 -0.11979314 20.32807584 -0.13334153 22.20043945 -0.15087891 C31.66165176 -0.23714365 41.04776964 -0.21114196 50.4609375 0.83984375 C51.13672348 0.91206146 51.81250946 0.98427917 52.5087738 1.0586853 C61.36943988 2.18914124 68.37387493 6.33018018 73.87890625 13.2890625 C78.12295955 19.76604976 78.67358753 27.2188493 77.6015625 34.828125 C75.67854797 42.2034513 71.88754608 46.71402602 66 51.375 C62.88659811 53.06142602 60.47199802 53.50813361 57 54 C59.01379601 57.46247533 61.03734874 60.9191559 63.0625 64.375 C63.62388672 65.34050781 64.18527344 66.30601562 64.76367188 67.30078125 C73.24178315 82.84132354 73.24178315 82.84132354 88 91 C89 92 89 92 89.125 94.9375 C89 98 89 98 88 100 C82.08359105 102.12383911 74.41764407 102.03213904 68.46484375 100.234375 C57.74438411 94.86469151 51.26813249 83.87098063 45.48510742 73.81982422 C44.41867318 71.96729548 43.33482461 70.12581172 42.24804688 68.28515625 C37 59.31601317 37 59.31601317 37 57 C35.02 57 33.04 57 31 57 C31.00785522 58.90060181 31.00785522 58.90060181 31.01586914 60.83959961 C31.03391514 65.5228607 31.04543053 70.20611871 31.05493164 74.8894043 C31.05997278 76.91968298 31.06680557 78.94995802 31.07543945 80.98022461 C31.08751467 83.89177347 31.09323034 86.8032745 31.09765625 89.71484375 C31.10281754 90.6283812 31.10797882 91.54191864 31.11329651 92.48313904 C31.11349168 94.65575427 31.06211805 96.82827296 31 99 C29.1144747 100.8855253 26.42231169 100.13246689 23.91796875 100.13671875 C23.12003906 100.13285156 22.32210937 100.12898438 21.5 100.125 C20.30310547 100.13080078 20.30310547 100.13080078 19.08203125 100.13671875 C13.12660767 100.12660767 13.12660767 100.12660767 12 99 C11.88550634 96.33858658 11.83515898 93.70206153 11.82641602 91.03955078 C11.819729 90.20541656 11.81304199 89.37128235 11.80615234 88.51187134 C11.79206791 86.69430142 11.78018477 84.87671345 11.77020454 83.05911636 C11.75384712 80.18492348 11.73061159 77.31086423 11.70530701 74.43673706 C11.63438629 66.26274226 11.57438034 58.08869246 11.52319336 49.91455078 C11.49143827 44.92072405 11.45016958 39.92704953 11.40299797 34.93334579 C11.38695443 33.02674976 11.37464378 31.12011862 11.36609077 29.21347427 C11.35396516 26.54857141 11.32982665 23.88402758 11.30297852 21.21923828 C11.3020948 20.03152832 11.3020948 20.03152832 11.30119324 18.81982422 C11.25033236 15.01875105 11.15988898 13.23983347 9 10 C6.80545319 9.42006301 6.80545319 9.42006301 4.375 9.3125 C2.93125 9.209375 1.4875 9.10625 0 9 C0 6.03 0 3.06 0 0 Z M31 12 C31 22.56 31 33.12 31 44 C35.77062994 46.38531497 41.81179292 45.27659155 46.75 43.8125 C50.76674649 42.33079806 53.29474462 40.38156923 56 37 C57.95367865 31.13896406 58.01928969 25.03857938 55.25 19.5 C52.03042366 15.92269295 49.32133966 14.16066983 45 12 C40.38 12 35.76 12 31 12 Z " fill="#1B1443" transform="translate(546,392)"/>
  <path d="M0 0 C0.72711182 0.00404846 1.45422363 0.00809692 2.20336914 0.01226807 C2.95046143 0.01035461 3.69755371 0.00844116 4.46728516 0.00646973 C6.04761085 0.00510809 7.62794772 0.00880307 9.20825195 0.01715088 C11.63135836 0.02785107 14.05372337 0.01725527 16.47680664 0.00445557 C18.01066245 0.00577717 19.54451779 0.00833957 21.07836914 0.01226807 C21.80548096 0.0082196 22.53259277 0.00417114 23.28173828 0 C28.41094553 0.04796946 28.41094553 0.04796946 30.64086914 2.27789307 C30.89086914 4.77789307 30.89086914 4.77789307 30.64086914 7.27789307 C27.87863636 10.04012585 25.43380297 9.85645597 21.64086914 10.27789307 C21.64531036 11.07365753 21.64975159 11.869422 21.65432739 12.68930054 C21.69467523 20.2490304 21.72498973 27.80870685 21.74449348 35.36851692 C21.75485814 39.25355815 21.76888063 43.13850919 21.79174805 47.02349854 C21.81374127 50.78420756 21.82549251 54.54483075 21.83062363 58.30559921 C21.83427253 59.72866031 21.84139514 61.15171759 21.85232925 62.57474136 C21.96864405 78.36420323 21.36938682 96.54233977 10.64086914 109.27789307 C9.98086914 109.27789307 9.32086914 109.27789307 8.64086914 109.27789307 C8.14586914 110.76289307 8.14586914 110.76289307 7.64086914 112.27789307 C-0.64901598 120.39462132 -12.76899113 124.17211442 -24.17163086 124.59039307 C-34.49449505 124.31831758 -42.93391635 121.1023482 -51.35913086 115.27789307 C-52.26663086 114.67976807 -53.17413086 114.08164307 -54.10913086 113.46539307 C-64.99817453 102.87882283 -66.43277609 89.72167265 -66.67553711 75.31304932 C-66.69631821 74.27973984 -66.7170993 73.24643036 -66.73851013 72.18180847 C-66.80356564 68.90140023 -66.8626849 65.62091621 -66.92163086 62.34039307 C-66.96485797 60.10796355 -67.00847357 57.87554153 -67.05249023 55.64312744 C-67.15920157 50.18812795 -67.2610473 44.73305414 -67.35913086 39.27789307 C-69.34480794 39.08258057 -71.33048503 38.88726807 -73.31616211 38.69195557 C-75.35913086 38.27789307 -75.35913086 38.27789307 -78.35913086 36.27789307 C-78.54663086 32.65289307 -78.54663086 32.65289307 -78.35913086 29.27789307 C-73.57108425 26.88386976 -66.3158867 27.9656501 -60.9921875 27.92779541 C-59.28013541 27.91120985 -57.56815329 27.88388538 -55.85644531 27.84576416 C-53.389527 27.79110746 -50.92422856 27.76914356 -48.45678711 27.75445557 C-47.69108902 27.73178619 -46.92539093 27.70911682 -46.13648987 27.6857605 C-43.97265625 27.69439697 -43.97265625 27.69439697 -40.35913086 28.27789307 C-38.32958984 30.67388916 -38.32958984 30.67388916 -37.35913086 33.27789307 C-37.73413086 35.46539307 -37.73413086 35.46539307 -39.35913086 37.27789307 C-41.6775967 37.9945555 -44.0110395 38.66523015 -46.35913086 39.27789307 C-46.434235 44.98465211 -46.48817571 50.69111287 -46.52392578 56.39825439 C-46.53885565 58.3328758 -46.55920695 60.26746431 -46.58544922 62.20196533 C-47.47530231 84.62169353 -47.47530231 84.62169353 -38.35913086 104.27789307 C-32.42634232 109.17889229 -25.98682614 110.92430792 -18.35913086 110.27789307 C-11.92989822 108.96747622 -6.8900555 107.23029906 -2.35913086 102.27789307 C2.43217777 94.49201655 3.76974347 87.8292431 3.75439453 78.7119751 C3.75454056 77.97958115 3.75468658 77.24718719 3.75483704 76.49259949 C3.75414464 74.09027058 3.74638396 71.68802081 3.73852539 69.28570557 C3.73665882 67.61276288 3.73523604 65.93981965 3.73423767 64.26687622 C3.73043133 59.87748692 3.72061722 55.48813104 3.70953369 51.09875488 C3.69927899 46.61420138 3.69473137 42.12964243 3.68969727 37.64508057 C3.67899317 28.85600278 3.66193949 20.06695209 3.64086914 11.27789307 C-0.81413086 10.28789307 -0.81413086 10.28789307 -5.35913086 9.27789307 C-5.35913086 8.61789307 -5.35913086 7.95789307 -5.35913086 7.27789307 C-6.01913086 7.27789307 -6.67913086 7.27789307 -7.35913086 7.27789307 C-7.48413086 4.90289307 -7.48413086 4.90289307 -7.35913086 2.27789307 C-4.87062412 -0.21061367 -3.39703026 0.03176976 0 0 Z " fill="#1B1442" transform="translate(808.359130859375,246.72210693359375)"/>
  <path d="M0 0 C5.94 0 11.88 0 18 0 C18.02278993 30.43016386 18.04049795 60.86032684 18.05106533 91.29049727 C18.05231611 94.87929312 18.05361042 98.46808894 18.05493164 102.05688477 C18.05519395 102.77137939 18.05545626 103.48587401 18.05572652 104.22201998 C18.06008331 115.80612918 18.0679709 127.39023345 18.0771528 138.97433972 C18.0864891 150.85190458 18.09205556 162.72946684 18.09408849 174.60703522 C18.09534006 181.28217621 18.09848476 187.95730734 18.10573006 194.63244438 C18.11248609 200.9072829 18.11461782 207.18210551 18.11310768 213.45694733 C18.1133842 215.76732278 18.11539178 218.07769874 18.11920547 220.38807106 C18.12413621 223.52752774 18.12300059 226.66692331 18.12025452 229.80638123 C18.12462378 231.19691693 18.12462378 231.19691693 18.12908131 232.61554426 C18.11412121 238.88587879 18.11412121 238.88587879 17 240 C11.39 240 5.78 240 0 240 C0 160.8 0 81.6 0 0 Z " fill="#1B1445" transform="translate(660,104)"/>
  <path d="M0 0 C8.35403821 -0.04644848 16.70802199 -0.08193256 25.06215763 -0.10362434 C28.94179424 -0.11403807 32.82134216 -0.12815296 36.70092773 -0.15087891 C40.44863691 -0.17269364 44.19626105 -0.18458674 47.94402885 -0.18975449 C49.37008438 -0.19343481 50.79613553 -0.20062141 52.22215462 -0.21146011 C54.22756492 -0.22608909 56.23306175 -0.22681789 58.23852539 -0.22705078 C59.947286 -0.23371262 59.947286 -0.23371262 61.69056702 -0.24050903 C66.96430451 0.14275345 70.85342638 1.00297946 74.875 4.5 C77.54708484 7.64362923 78.12667337 9.0848561 78.1328125 13.09765625 C78.13410156 13.89880859 78.13539063 14.69996094 78.13671875 15.52539062 C78.13285156 16.36263672 78.12898437 17.19988281 78.125 18.0625 C78.12886719 18.90361328 78.13273438 19.74472656 78.13671875 20.61132812 C78.12662682 26.87337318 78.12662682 26.87337318 77 28 C74.66702567 28.04092937 72.33294775 28.04241723 70 28 C69.80664062 27.31292969 69.61328125 26.62585938 69.4140625 25.91796875 C69.02347656 24.56638672 69.02347656 24.56638672 68.625 23.1875 C68.36976563 22.29417969 68.11453125 21.40085937 67.8515625 20.48046875 C66.76809604 17.32449992 65.80281759 15.42428147 62.80200195 13.83837891 C59.50642775 12.85231967 56.60691048 12.67683464 53.16796875 12.5859375 C52.00289795 12.55032715 50.83782715 12.5147168 49.63745117 12.47802734 C48.16896729 12.44402832 46.7004834 12.4100293 45.1875 12.375 C40.505625 12.25125 35.82375 12.1275 31 12 C31 22.23 31 32.46 31 43 C43.54 43 56.08 43 69 43 C69 46.63 69 50.26 69 54 C56.79 54.33 44.58 54.66 32 55 C31.67 65.89 31.34 76.78 31 88 C36.9709375 87.7834375 36.9709375 87.7834375 43.0625 87.5625 C44.30394775 87.51939697 45.54539551 87.47629395 46.82446289 87.43188477 C58.73858319 87.33723308 58.73858319 87.33723308 69 82 C71.2320351 78.8794159 72.78461946 75.64614161 74 72 C79.625 71.75 79.625 71.75 83 74 C82.45806986 79.330123 81.15341447 83.57894042 78.9375 88.4375 C78.65583984 89.07365234 78.37417969 89.70980469 78.08398438 90.36523438 C77.39710188 91.91363051 76.69965593 93.45733357 76 95 C75.34 95 74.68 95 74 95 C74 95.66 74 96.32 74 97 C68.13942002 100.92667917 62.24447232 100.38361447 55.3828125 100.29296875 C53.56437332 100.28660149 53.56437332 100.28660149 51.709198 100.28010559 C47.84757018 100.26334946 43.98646938 100.22570145 40.125 100.1875 C37.50261172 100.17244926 34.88021523 100.15876154 32.2578125 100.14648438 C25.83836267 100.11345585 19.419219 100.06328619 13 100 C12.99191315 98.95874466 12.98382629 97.91748932 12.97549438 96.84468079 C12.89800013 87.03046129 12.81025245 77.21637986 12.71247292 67.40234089 C12.66253318 62.35687826 12.61620283 57.31143634 12.578125 52.26586914 C12.54124301 47.3963633 12.49487494 42.52703162 12.44193649 37.65767479 C12.42340807 35.80018355 12.40829438 33.94265499 12.39665604 32.0851078 C12.3797671 29.48274538 12.35072561 26.88078047 12.31884766 24.27856445 C12.31668747 23.5110788 12.31452728 22.74359314 12.31230164 21.95285034 C12.22006271 15.44459551 12.22006271 15.44459551 9 10 C6.01110641 9.54234333 3.01030352 9.29679049 0 9 C0 6.03 0 3.06 0 0 Z " fill="#1A1442" transform="translate(835,392)"/>
  <path d="M0 0 C8.16738129 8.41898308 8.95707418 16.96734845 8.87890625 28.34765625 C8.87844803 29.44139557 8.87798981 30.53513489 8.8775177 31.66201782 C8.87451055 33.95974827 8.86667066 36.25747695 8.85424805 38.55517578 C8.835888 42.08373161 8.8337393 45.61202618 8.83398438 49.140625 C8.82907249 51.37630437 8.82324561 53.61198195 8.81640625 55.84765625 C8.81529343 56.90592621 8.8141806 57.96419617 8.81303406 59.05453491 C8.80665421 60.02959991 8.80027435 61.00466492 8.79370117 62.00927734 C8.78988937 62.86895111 8.78607758 63.72862488 8.78215027 64.61434937 C8.6484375 66.69921875 8.6484375 66.69921875 7.6484375 68.69921875 C2.0384375 68.69921875 -3.5715625 68.69921875 -9.3515625 68.69921875 C-9.36614502 67.39887695 -9.38072754 66.09853516 -9.39575195 64.75878906 C-9.45421155 59.88303649 -9.53143731 55.007723 -9.61401367 50.13232422 C-9.6470406 48.03181137 -9.67513989 45.93121452 -9.69799805 43.83056641 C-8.83815694 25.11321654 -8.83815694 25.11321654 -16.1015625 8.94921875 C-21.1557461 7.00530198 -24.48934535 6.95080692 -29.52441406 8.97436523 C-32.75894701 12.09186284 -32.809329 12.7669514 -33.09277344 17.06274414 C-33.12024976 19.30728742 -33.11590268 21.55236357 -33.0859375 23.796875 C-33.09490051 24.98268661 -33.10386353 26.16849823 -33.11309814 27.39024353 C-33.13723857 31.18124084 -33.12125352 34.97071686 -33.1015625 38.76171875 C-33.1030025 42.55589054 -33.11282816 46.34978678 -33.13287354 50.14390564 C-33.14311061 52.50550756 -33.14129457 54.86719786 -33.12640381 57.22877502 C-33.12690735 58.29675827 -33.12741089 59.36474152 -33.12792969 60.46508789 C-33.12315613 61.40566544 -33.11838257 62.34624298 -33.11346436 63.31532288 C-33.3515625 65.69921875 -33.3515625 65.69921875 -35.3515625 68.69921875 C-38.30220398 68.92007515 -41.03524481 68.97982864 -43.9765625 68.88671875 C-45.17925781 68.86641602 -45.17925781 68.86641602 -46.40625 68.84570312 C-48.38830628 68.81030926 -50.37001801 68.75650109 -52.3515625 68.69921875 C-52.36186996 68.02793945 -52.37217743 67.35666016 -52.38279724 66.66503906 C-52.49126644 59.65664726 -52.60582963 52.64837359 -52.72387695 45.64013672 C-52.76709666 43.02720622 -52.80878049 40.41424983 -52.84887695 37.80126953 C-52.90689452 34.03800671 -52.97049741 30.27487262 -53.03515625 26.51171875 C-53.05186874 25.34995117 -53.06858124 24.18818359 -53.08580017 22.99121094 C-53.19169344 17.14823368 -53.48381505 11.48008433 -54.3515625 5.69921875 C-57.9815625 5.36921875 -61.6115625 5.03921875 -65.3515625 4.69921875 C-65.3515625 1.72921875 -65.3515625 -1.24078125 -65.3515625 -4.30078125 C-61.78921822 -4.38819249 -58.22715142 -4.44131021 -54.6640625 -4.48828125 C-53.65666016 -4.51341797 -52.64925781 -4.53855469 -51.61132812 -4.56445312 C-46.28675806 -4.61717164 -42.74428652 -4.65056476 -38.3515625 -1.30078125 C-35.13755423 -1.46993958 -32.93200708 -2.48725033 -29.9765625 -3.80078125 C-20.18249719 -7.85349793 -8.19867038 -7.14356723 0 0 Z " fill="#1B1441" transform="translate(496.3515625,423.30078125)"/>
  <path d="M0 0 C0.825 -0.01224609 1.65 -0.02449219 2.5 -0.03710938 C10.71311592 -0.05666441 16.71282578 1.39768487 22.828125 7.05078125 C27.6483068 12.78260613 29.74752582 20.72143495 29.75439453 28.10791016 C29.75754669 29.08216949 29.76069885 30.05642883 29.76394653 31.06021118 C29.7619223 32.10510712 29.75989807 33.15000305 29.7578125 34.2265625 C29.75876923 35.30376556 29.75972595 36.38096863 29.76071167 37.49081421 C29.76139168 39.76536111 29.75954988 42.03990996 29.75537109 44.31445312 C29.75000993 47.80603358 29.75532752 51.297486 29.76171875 54.7890625 C29.76105814 56.99739612 29.75977734 59.20572966 29.7578125 61.4140625 C29.75983673 62.4630069 29.76186096 63.51195129 29.76394653 64.59268188 C29.75921829 66.04461441 29.75921829 66.04461441 29.75439453 67.52587891 C29.75359894 68.3798526 29.75280334 69.23382629 29.75198364 70.11367798 C29.625 72.1875 29.625 72.1875 28.625 74.1875 C24.91513428 74.47533441 21.32501295 74.64001957 17.625 74.1875 C14.9375 71.6875 14.9375 71.6875 13.625 69.1875 C13.09390625 69.53683594 12.5628125 69.88617188 12.015625 70.24609375 C11.30921875 70.70113281 10.6028125 71.15617187 9.875 71.625 C9.17890625 72.07746094 8.4828125 72.52992188 7.765625 72.99609375 C1.34143438 76.5716013 -7.25955894 76.11950984 -14.23828125 74.5390625 C-20.1122102 72.45332749 -24.13081433 69.552884 -27.375 64.1875 C-29.93805715 57.89635972 -30.10792299 51.5855975 -28.6875 45 C-25.44460731 38.05094424 -21.26978586 35.02491685 -14.375 32.1875 C-13.42625 31.795625 -12.4775 31.40375 -11.5 31 C-4.2400768 29.11241997 3.16519307 29.06718053 10.625 29.1875 C9.71188365 20.20359006 9.71188365 20.20359006 4.625 13.1875 C-0.10375263 11.7966904 -4.65859291 11.97106565 -9.421875 13.11328125 C-12.06424053 14.56658229 -12.45692711 15.91927527 -13.375 18.75 C-13.71542754 20.22755008 -14.05037487 21.70639782 -14.375 23.1875 C-15.375 24.1875 -15.375 24.1875 -17.66015625 24.28515625 C-19.03494141 24.26775391 -19.03494141 24.26775391 -20.4375 24.25 C-21.35660156 24.24097656 -22.27570313 24.23195313 -23.22265625 24.22265625 C-23.93292969 24.21105469 -24.64320313 24.19945312 -25.375 24.1875 C-25.4564222 21.95894426 -25.51438079 19.72952345 -25.5625 17.5 C-25.59730469 16.25863281 -25.63210938 15.01726562 -25.66796875 13.73828125 C-25.35321777 9.92349934 -24.73292137 8.16284547 -22.375 5.1875 C-20.5078125 3.859375 -20.5078125 3.859375 -18.5 2.9375 C-17.84257812 2.62296875 -17.18515625 2.3084375 -16.5078125 1.984375 C-11.07350235 -0.04602659 -5.72835482 0.00443371 0 0 Z M-7.625 45.9375 C-9.85866844 48.80935943 -10.3023221 50.55360485 -10.375 54.1875 C-8.84626129 58.16222063 -7.94719503 59.80603665 -4.375 62.1875 C0.2790333 63.02965841 3.86698118 62.5199644 8.1875 60.625 C10.62630422 58.34072056 10.65204031 56.9141893 10.98828125 53.515625 C11.06024438 49.72511432 10.88184182 45.9687824 10.625 42.1875 C8.89619018 42.13300162 7.16687288 42.09448312 5.4375 42.0625 C3.99310547 42.02769531 3.99310547 42.02769531 2.51953125 41.9921875 C-1.59426175 42.26977137 -4.38567338 43.41802374 -7.625 45.9375 Z " fill="#1A1441" transform="translate(398.375,417.8125)"/>
  <path d="M0 0 C1.23073242 -0.01836914 1.23073242 -0.01836914 2.48632812 -0.03710938 C10.18027799 -0.05553064 16.23197328 1.10078025 21.9921875 6.421875 C29.19623726 14.52195085 29.86699596 25.07166737 29.79296875 35.3984375 C29.79251053 36.44778473 29.79205231 37.49713196 29.7915802 38.57827759 C29.78857403 40.78185161 29.78073714 42.98542381 29.76831055 45.18896484 C29.74994482 48.57266699 29.74780185 51.95609674 29.74804688 55.33984375 C29.74313515 57.48437738 29.73730834 59.62890915 29.73046875 61.7734375 C29.72935593 62.7879599 29.7282431 63.8024823 29.72709656 64.8477478 C29.72071671 65.7827713 29.71433685 66.7177948 29.70776367 67.68115234 C29.70204597 68.91736832 29.70204597 68.91736832 29.69621277 70.17855835 C29.5625 72.1875 29.5625 72.1875 28.5625 74.1875 C24.9325 74.1875 21.3025 74.1875 17.5625 74.1875 C17.5625 73.5275 17.5625 72.8675 17.5625 72.1875 C16.9025 72.1875 16.2425 72.1875 15.5625 72.1875 C15.2325 71.5275 14.9025 70.8675 14.5625 70.1875 C12.0052253 70.66106939 10.31802142 71.33418715 8.0625 72.6875 C3.81489096 75.23606542 0.10372096 75.34635069 -4.8125 75.375 C-5.91335938 75.38917969 -7.01421875 75.40335937 -8.1484375 75.41796875 C-14.17895097 74.99540308 -18.71331563 72.90653876 -23.4375 69.1875 C-28.8377404 62.82915243 -29.8085568 57.73383421 -29.70703125 49.41796875 C-29.25972692 44.0567995 -27.66511453 41.30448808 -23.70703125 37.54296875 C-13.70533494 29.33798435 -1.8517907 28.9872695 10.5625 29.1875 C10.13870166 27.08053095 9.6979597 24.97696473 9.25 22.875 C9.00636719 21.70324219 8.76273438 20.53148437 8.51171875 19.32421875 C7.58879221 16.2743833 7.11333511 15.00504836 4.5625 13.1875 C-0.71050023 11.81651994 -6.54072428 11.49427335 -11.4375 14.1875 C-13.088077 17.07600975 -13.73054737 19.96202863 -14.4375 23.1875 C-15.4375 24.1875 -15.4375 24.1875 -17.72265625 24.28515625 C-19.09744141 24.26775391 -19.09744141 24.26775391 -20.5 24.25 C-21.41910156 24.24097656 -22.33820312 24.23195313 -23.28515625 24.22265625 C-23.99542969 24.21105469 -24.70570313 24.19945312 -25.4375 24.1875 C-26.29822946 10.22455538 -26.29822946 10.22455538 -23.25 6.5 C-15.82283013 0.39321589 -9.31477389 0.00728286 0 0 Z M-7.75 45.75 C-9.94646745 48.92267521 -10.07580079 51.18952246 -9.875 54.9921875 C-9.51891814 57.46455662 -9.51891814 57.46455662 -7.5 60.25 C-3.97224194 62.48184694 -1.8497139 63.0037273 2.26953125 62.70703125 C5.63011929 61.94560329 7.81795933 60.82863078 10.3203125 58.453125 C13.01037219 53.54672682 12.0291186 47.59435046 11.5625 42.1875 C9.66698978 42.13308344 7.7710208 42.09451965 5.875 42.0625 C4.81925781 42.03929687 3.76351562 42.01609375 2.67578125 41.9921875 C-1.49466254 42.25382136 -4.31459444 43.42878003 -7.75 45.75 Z " fill="#1A1441" transform="translate(730.4375,417.8125)"/>
  <path d="M0 0 C0.77279297 -0.01224609 1.54558594 -0.02449219 2.34179688 -0.03710938 C10.66065298 -0.05820538 16.23104832 1.67856358 22.3359375 7.39453125 C29.37347959 14.70274803 29.35704762 23.38682717 29.29296875 32.95703125 C29.29251053 34.07438156 29.29205231 35.19173187 29.2915802 36.34294128 C29.28856965 38.69372628 29.28071941 41.0445095 29.26831055 43.39526367 C29.24997401 47.00511682 29.24780159 50.61471436 29.24804688 54.22460938 C29.24313425 56.5104189 29.23730706 58.79622668 29.23046875 61.08203125 C29.22935593 62.16531204 29.2282431 63.24859283 29.22709656 64.36470032 C29.22071671 65.36301376 29.21433685 66.36132721 29.20776367 67.38989258 C29.20204597 68.71057487 29.20204597 68.71057487 29.19621277 70.05793762 C29.0625 72.1875 29.0625 72.1875 28.0625 74.1875 C26.45917209 74.26871924 24.85465974 74.32679134 23.25 74.375 C21.91001953 74.42720703 21.91001953 74.42720703 20.54296875 74.48046875 C17.58941604 74.13162394 16.89164986 73.45608526 15.0625 71.1875 C14.0725 70.1975 14.0725 70.1975 13.0625 69.1875 C12.5675 69.620625 12.0725 70.05375 11.5625 70.5 C3.63823895 75.84887621 -5.01704859 76.45510744 -14.3046875 74.75390625 C-19.57697962 73.10246845 -23.70005517 69.63898664 -26.9375 65.1875 C-26.9375 64.1975 -26.9375 63.2075 -26.9375 62.1875 C-27.5975 62.1875 -28.2575 62.1875 -28.9375 62.1875 C-30.00046669 53.43957142 -30.3378232 47.04522 -25.9375 39.1875 C-25.2775 39.1875 -24.6175 39.1875 -23.9375 39.1875 C-23.9375 38.5275 -23.9375 37.8675 -23.9375 37.1875 C-22.37630578 36.39326139 -20.81348036 35.60222877 -19.25 34.8125 C-18.37988281 34.37164062 -17.50976562 33.93078125 -16.61328125 33.4765625 C-7.8486009 29.25416175 0.44818247 29.03243036 10.0625 29.1875 C9.14938365 20.20359006 9.14938365 20.20359006 4.0625 13.1875 C-0.87010215 11.81733273 -4.28833181 12.07424173 -8.9375 14.1875 C-12.19744513 16.51603223 -12.72935912 19.48253463 -13.9375 23.1875 C-16.46225462 24.44987731 -18.24950466 24.28606404 -21.0625 24.25 C-21.97257812 24.24097656 -22.88265625 24.23195313 -23.8203125 24.22265625 C-24.86832031 24.20525391 -24.86832031 24.20525391 -25.9375 24.1875 C-26.55648212 12.59877923 -26.55648212 12.59877923 -24.375 7.625 C-17.32073653 0.57073653 -9.51282767 0.00789446 0 0 Z M-6.9375 45.1875 C-7.55625 45.579375 -8.175 45.97125 -8.8125 46.375 C-10.71747569 49.4441275 -10.4489705 52.73507412 -9.9375 56.1875 C-8.20782287 59.93297604 -8.20782287 59.93297604 -4.9375 62.1875 C-2.66956116 62.49993288 -2.66956116 62.49993288 -0.125 62.5625 C0.72707031 62.61148438 1.57914063 62.66046875 2.45703125 62.7109375 C6.33947592 61.93095611 7.72979051 60.33790303 10.0625 57.1875 C10.43021245 54.3487599 10.54880804 52.16929849 10.375 49.375 C10.35244141 48.68212891 10.32988281 47.98925781 10.30664062 47.27539062 C10.24812661 45.57848427 10.1584548 43.88270139 10.0625 42.1875 C1.12519775 41.68836419 1.12519775 41.68836419 -6.9375 45.1875 Z " fill="#1B1441" transform="translate(1061.9375,417.8125)"/>
  <path d="M0 0 C7.30016965 5.80102767 10.89602897 13.07607703 12.59765625 22.20703125 C13.83212873 33.94161452 12.63837226 45.55076365 5.39453125 55.12109375 C-1.05325715 62.87836677 -8.23791653 67.34356383 -18.33984375 68.32421875 C-28.62211988 68.64798206 -35.87972623 66.87804124 -43.8125 60.25 C-52.58502609 51.81785411 -55.92391333 42.11684016 -56.375 29.9375 C-55.9932274 20.12276266 -53.16132702 10.7574368 -47 3 C-46.34 3 -45.68 3 -45 3 C-44.67 2.01 -44.34 1.02 -44 0 C-41.890625 -1.5703125 -41.890625 -1.5703125 -39.25 -3.125 C-38.38890625 -3.64320313 -37.5278125 -4.16140625 -36.640625 -4.6953125 C-24.96090579 -10.46606134 -9.95788385 -7.62731529 0 0 Z M-29 7 C-35.89798581 14.79382812 -36.46560059 24.19788086 -36.31640625 34.1640625 C-35.72876142 41.28834923 -33.89572793 47.38696961 -29.6875 53.1875 C-26.32778901 55.4533516 -24.03992411 55.9278585 -20 56 C-15.47668375 54.94806599 -13.54093076 52.81139614 -11 49 C-6.81040644 40.62081287 -5.34542758 33.17969508 -7 24 C-7.1134375 23.24589844 -7.226875 22.49179687 -7.34375 21.71484375 C-8.34093607 16.12484876 -10.1463507 11.26403793 -14 7 C-19.53586328 3.5122891 -23.46550864 3.50145261 -29 7 Z " fill="#1B1442" transform="translate(232,425)"/>
  <path d="M0 0 C6.05969645 4.76681131 9.8187861 10.87977795 11.4765625 18.41796875 C11.91394955 22.08390351 11.98776454 25.65207834 11.98046875 29.34375 C11.98433594 31.31601562 11.98433594 31.31601562 11.98828125 33.328125 C11.85546875 36.59375 11.85546875 36.59375 10.85546875 38.59375 C-3.00453125 38.59375 -16.86453125 38.59375 -31.14453125 38.59375 C-28.36349748 49.09796704 -28.36349748 49.09796704 -22.14453125 56.59375 C-16.27602603 58.24052442 -10.77264053 57.97487316 -5.14453125 55.59375 C-1.8291619 53.35032455 0.61917253 50.94819433 2.85546875 47.59375 C6.2300959 48.14098683 7.93781875 48.64865 10.85546875 50.59375 C10.02632125 56.50014637 7.15696927 59.63265599 2.85546875 63.59375 C-6.43625791 70.20626713 -13.76646708 71.4670933 -25.14453125 70.59375 C-33.35062556 68.65573852 -39.26046227 64.27894925 -44.39453125 57.71875 C-51.17617138 45.60867834 -52.40563346 32.30579457 -49.1875 18.94140625 C-46.34521513 9.81841697 -41.26895804 2.6081187 -32.95703125 -2.28125 C-22.7528513 -6.36292198 -9.3097179 -6.10473305 0 0 Z M-22.83203125 7.59375 C-29.10380778 13.01798916 -29.43622435 17.05221551 -31.14453125 25.59375 C-23.22453125 25.59375 -15.30453125 25.59375 -7.14453125 25.59375 C-8.35470331 15.8261651 -8.35470331 15.8261651 -13.14453125 8.59375 C-16.91287613 6.88086597 -18.90316019 6.13184449 -22.83203125 7.59375 Z " fill="#1B1441" transform="translate(1199.14453125,422.40625)"/>
  <path d="M0 0 C7.62957265 6.00174175 10.69775924 13.29056979 12.23046875 22.71875 C12.83919025 27.93555011 12.9624527 32.46136988 11.85546875 37.59375 C10.85546875 38.59375 10.85546875 38.59375 6.88647461 38.70727539 C5.11441268 38.7071162 3.34234615 38.70141785 1.5703125 38.69140625 C0.63949356 38.6899913 -0.29132538 38.68857635 -1.25035095 38.68711853 C-4.23594316 38.68150172 -7.22146154 38.6689464 -10.20703125 38.65625 C-12.22591038 38.65123716 -14.24479068 38.64667388 -16.26367188 38.64257812 C-21.22398697 38.63152683 -26.18424657 38.61425095 -31.14453125 38.59375 C-30.40875837 40.84931604 -29.65677611 43.09713357 -28.89453125 45.34375 C-28.68957031 45.97796875 -28.48460937 46.6121875 -28.2734375 47.265625 C-26.89559083 51.27390623 -25.45985237 53.92499039 -22.14453125 56.59375 C-16.2496796 58.24791756 -10.10062874 57.58643291 -4.14453125 56.59375 C-4.14453125 55.93375 -4.14453125 55.27375 -4.14453125 54.59375 C-2.49067892 53.24455468 -0.82282925 51.91241272 0.85546875 50.59375 C1.51546875 49.60375 2.17546875 48.61375 2.85546875 47.59375 C6.2300959 48.14098683 7.93781875 48.64865 10.85546875 50.59375 C10.32862071 54.66614298 9.22497726 56.80973637 6.48046875 59.84375 C5.87460937 60.52953125 5.26875 61.2153125 4.64453125 61.921875 C2.85546875 63.59375 2.85546875 63.59375 -0.14453125 64.59375 C-0.14453125 65.25375 -0.14453125 65.91375 -0.14453125 66.59375 C-8.76434809 71.20434971 -18.4510341 72.17667162 -28.03515625 69.91015625 C-36.0709674 66.93986409 -41.94397767 62.09473853 -46.14453125 54.59375 C-51.51317637 42.82125016 -51.97230892 27.93787513 -48.14453125 15.59375 C-44.26714569 7.04615882 -38.50233647 0.88559592 -30.14453125 -3.40625 C-20.7432707 -6.50390037 -8.2626046 -5.41810138 0 0 Z M-25.14453125 9.59375 C-27.98587097 12.78935345 -28.88671947 15.70238412 -29.83203125 19.84375 C-30.26515625 21.74125 -30.69828125 23.63875 -31.14453125 25.59375 C-23.22453125 25.59375 -15.30453125 25.59375 -7.14453125 25.59375 C-8.04121756 15.95587184 -8.04121756 15.95587184 -13.14453125 8.59375 C-18.16423964 6.17353346 -20.82241655 5.99198775 -25.14453125 9.59375 Z " fill="#1B1442" transform="translate(683.14453125,422.40625)"/>
  <path d="M0 0 C4.29738849 4.32875628 4.76363809 7.94764194 4.85546875 13.8671875 C4.77469952 19.27872596 4.77469952 19.27872596 3.60546875 21.6171875 C0.79296875 21.9296875 0.79296875 21.9296875 -2.39453125 21.6171875 C-4.08203125 19.4921875 -4.08203125 19.4921875 -5.39453125 16.6171875 C-7.80199015 11.12583496 -7.80199015 11.12583496 -12.39453125 7.6171875 C-18.73093518 6.08727106 -24.1979657 6.84464747 -30.39453125 8.6171875 C-30.71430791 12.05478659 -30.71686971 14.06598 -28.953125 17.08203125 C-25.464071 20.53912445 -21.75375593 21.79477281 -17.20703125 23.4921875 C-8.02766075 27.13328296 -0.03939366 31.14989388 5.60546875 39.6171875 C7.29889397 44.69746317 7.57485949 50.52798446 5.95703125 55.68359375 C2.91117445 61.50196123 -2.17291769 65.96022613 -8.20703125 68.4921875 C-18.36758824 71.43017988 -30.77422715 70.83661912 -40.39453125 66.6171875 C-41.38453125 66.2871875 -42.37453125 65.9571875 -43.39453125 65.6171875 C-43.39453125 64.9571875 -43.39453125 64.2971875 -43.39453125 63.6171875 C-44.34585938 63.2459375 -44.34585938 63.2459375 -45.31640625 62.8671875 C-47.39453125 61.6171875 -47.39453125 61.6171875 -48.22265625 59.8046875 C-49.33798997 54.02147564 -49.61565977 48.50166308 -49.39453125 42.6171875 C-46.75453125 42.6171875 -44.11453125 42.6171875 -41.39453125 42.6171875 C-41.1521875 43.30425781 -40.90984375 43.99132812 -40.66015625 44.69921875 C-40.325 45.60027344 -39.98984375 46.50132812 -39.64453125 47.4296875 C-39.3196875 48.32300781 -38.99484375 49.21632813 -38.66015625 50.13671875 C-37.20484562 52.98894791 -36.19987226 54.09053745 -33.39453125 55.6171875 C-26.51297736 56.9575163 -19.95017435 57.20895338 -13.39453125 54.6171875 C-12.66118696 50.63964622 -12.66118696 50.63964622 -12.39453125 46.6171875 C-13.05453125 46.6171875 -13.71453125 46.6171875 -14.39453125 46.6171875 C-14.39453125 45.9571875 -14.39453125 45.2971875 -14.39453125 44.6171875 C-17.20020396 43.48206801 -20.0140731 42.38450889 -22.84765625 41.3203125 C-43.15949619 33.614904 -43.15949619 33.614904 -48.39453125 24.6171875 C-49.72383214 18.2614676 -50.44808588 11.40930627 -47.57421875 5.39453125 C-43.5633299 -0.6483642 -38.96313876 -3.60922915 -31.95703125 -5.4453125 C-21.3366419 -7.27247626 -8.72045209 -7.05057829 0 0 Z " fill="#1A1441" transform="translate(972.39453125,423.3828125)"/>
  <path d="M0 0 C5.61 0 11.22 0 17 0 C18.32179746 2.64359492 18.12590517 4.61839112 18.12698364 7.57995605 C18.12980347 8.76621078 18.13262329 9.95246552 18.13552856 11.17466736 C18.13350433 12.48278885 18.1314801 13.79091034 18.12939453 15.13867188 C18.13074898 16.52486721 18.13252916 17.91106218 18.13470459 19.29725647 C18.13927372 23.06782217 18.13749149 26.83836058 18.1343255 30.60892677 C18.13179923 34.54914042 18.13414019 38.48935169 18.13571167 42.42956543 C18.13753258 49.04728618 18.13512911 55.66499578 18.13037109 62.28271484 C18.12492862 69.94100383 18.12669134 77.59926619 18.1321975 85.25755453 C18.13673086 91.82487768 18.13737808 98.3921928 18.13475883 104.959517 C18.13319729 108.8853642 18.13299895 112.81119888 18.13629532 116.73704529 C18.13917726 120.42729887 18.13719237 124.11751802 18.13140106 127.80776787 C18.12944114 129.81362231 18.13242464 131.81947965 18.13552856 133.82533264 C18.13129883 135.60471474 18.13129883 135.60471474 18.12698364 137.42004395 C18.12660662 138.45538521 18.12622959 139.49072647 18.12584114 140.55744171 C18 143 18 143 17 145 C11.39 145 5.78 145 0 145 C0 97.15 0 49.3 0 0 Z " fill="#1B1441" transform="translate(688,131)"/>
  <path d="M0 0 C16.83 0 33.66 0 51 0 C51 19 51 19 48.0625 23 C47.09957031 23.70382813 47.09957031 23.70382813 46.1171875 24.421875 C43.47692816 26.38989119 41.7191416 28.66164522 39.6875 31.25 C36.5728762 35.12080581 33.36666641 38.84625351 30 42.5 C25.91462361 46.93843361 22.09005397 51.52799356 18.3046875 56.22265625 C15.0563142 60.13722137 11.62411211 63.86067917 8.1640625 67.58984375 C6.30779022 69.65720836 4.6208858 71.74644587 3 74 C1.68 73.67 0.36 73.34 -1 73 C-0.67 48.91 -0.34 24.82 0 0 Z " fill="#B8965B" transform="translate(531,71)"/>
  <path d="M0 0 C2.10209857 3.15314785 2.2434761 3.86103081 2.1953125 7.44921875 C2.18886719 8.29677734 2.18242188 9.14433594 2.17578125 10.01757812 C2.15902344 10.89865234 2.14226563 11.77972656 2.125 12.6875 C2.11597656 13.58017578 2.10695313 14.47285156 2.09765625 15.39257812 C2.07409915 17.59516666 2.03822844 19.79761725 2 22 C7.28 22 12.56 22 18 22 C19.12256131 24.24512262 19.13413762 25.51456649 19.125 28 C19.12886719 29.051875 19.12886719 29.051875 19.1328125 30.125 C19 32 19 32 18 34 C12.72 34 7.44 34 2 34 C2.06876071 40.49655776 2.15667102 46.99246473 2.26245117 53.48852539 C2.29573508 55.69906406 2.32375612 57.90968843 2.34643555 60.12036133 C2.37991759 63.29545666 2.43223052 66.46976417 2.48828125 69.64453125 C2.49467117 70.63524124 2.5010611 71.62595123 2.50764465 72.64668274 C2.53733589 74.02777473 2.53733589 74.02777473 2.56762695 75.43676758 C2.57873001 76.2472908 2.58983307 77.05781403 2.60127258 77.89289856 C3.09479228 80.50093608 3.90207837 81.41505191 6 83 C8.35591124 83.18312831 8.35591124 83.18312831 10.875 82.75 C11.75671875 82.63269531 12.6384375 82.51539063 13.546875 82.39453125 C16.0477504 81.9923204 18.53256466 81.57573491 21 81 C22.87620422 84.16609462 23.09662822 86.35832401 23 90 C21.58671871 90.81837442 20.16921654 91.62946219 18.75 92.4375 C17.96109375 92.88996094 17.1721875 93.34242188 16.359375 93.80859375 C9.91304315 97.06377788 1.74687679 96.98096578 -5.23046875 95.5390625 C-10.44933597 93.58054721 -13.34444424 89.78976641 -16.11679077 85.11810303 C-17.15398481 82.63071526 -17.27722669 80.73934079 -17.31884766 78.04785156 C-17.33871735 77.06713684 -17.35858704 76.08642212 -17.37905884 75.07598877 C-17.39061005 74.02481873 -17.40216125 72.97364868 -17.4140625 71.890625 C-17.43342865 70.80867859 -17.4527948 69.72673218 -17.4727478 68.61199951 C-17.53250237 65.15807974 -17.57891297 61.70412656 -17.625 58.25 C-17.66318353 55.90753759 -17.70223548 53.56508916 -17.7421875 51.22265625 C-17.83820073 45.48188447 -17.92224744 39.74104697 -18 34 C-20.97 34 -23.94 34 -27 34 C-27 30.04 -27 26.08 -27 22 C-23.7 22 -20.4 22 -17 22 C-17.0928125 21.23816406 -17.185625 20.47632813 -17.28125 19.69140625 C-17.61427087 14.92801845 -17.8593559 11.38909584 -15.2890625 7.234375 C-10.3112245 1.66350937 -7.69393243 -0.5495666 0 0 Z " fill="#1A1441" transform="translate(1009,397)"/>
  <path d="M0 0 C1.20029908 2.40059817 1.11459743 3.89360649 1.09765625 6.5703125 C1.09443359 7.46621094 1.09121094 8.36210937 1.08789062 9.28515625 C1.07951172 10.22230469 1.07113281 11.15945313 1.0625 12.125 C1.05798828 13.06988281 1.05347656 14.01476562 1.04882812 14.98828125 C1.03702375 17.3255477 1.01908799 19.66278169 1 22 C6.61 22 12.22 22 18 22 C18.09765625 30.49609375 18.09765625 30.49609375 18 33 C17 34 17 34 13.40234375 34.09765625 C11.91403133 34.0909822 10.42573568 34.07902183 8.9375 34.0625 C7.79958008 34.05573242 7.79958008 34.05573242 6.63867188 34.04882812 C4.75908129 34.0370068 2.87953101 34.01907078 1 34 C1.11840302 40.17485057 1.24266228 46.34954529 1.37231445 52.52416992 C1.41558635 54.62407235 1.45726683 56.72400821 1.49731445 58.82397461 C1.55520477 61.84499173 1.6188451 64.86584179 1.68359375 67.88671875 C1.70030624 68.82335861 1.71701874 69.75999847 1.73423767 70.72502136 C1.82939451 74.92597586 1.94717619 78.90485257 3 83 C9.28260706 83.23268915 14.88019467 82.40454548 21 81 C22.248876 83.32566279 22.98805966 84.76716329 23.125 87.4375 C21.35384303 91.47180198 17.91549475 93.19498469 14 95 C7.52300932 96.68781516 -0.49968507 97.25709003 -6.875 94.9375 C-12.88645788 91.21039612 -16.19468581 86.84678274 -18 80 C-18.26682154 76.4482266 -18.23299484 72.91160575 -18.1953125 69.3515625 C-18.1924826 68.33903412 -18.18965271 67.32650574 -18.18673706 66.28329468 C-18.17558254 63.06374062 -18.15048646 59.84446935 -18.125 56.625 C-18.1149641 54.43620195 -18.10583931 52.24739951 -18.09765625 50.05859375 C-18.0756587 44.70563342 -18.04222824 39.35283692 -18 34 C-18.63808594 34.01160156 -19.27617188 34.02320313 -19.93359375 34.03515625 C-20.75988281 34.04417969 -21.58617187 34.05320312 -22.4375 34.0625 C-23.26121094 34.07410156 -24.08492187 34.08570313 -24.93359375 34.09765625 C-27 34 -27 34 -28 33 C-28.07226502 31.14712498 -28.0838122 29.29166122 -28.0625 27.4375 C-28.05347656 26.42558594 -28.04445313 25.41367187 -28.03515625 24.37109375 C-28.02355469 23.58863281 -28.01195312 22.80617188 -28 22 C-24.7 22 -21.4 22 -18 22 C-18.05800781 21.19175781 -18.11601563 20.38351562 -18.17578125 19.55078125 C-18.54894446 10.71214416 -18.54894446 10.71214416 -15.6875 7 C-14.800625 6.34 -13.91375 5.68 -13 5 C-12.46375 4.2575 -11.9275 3.515 -11.375 2.75 C-8.48481503 -0.92841723 -4.28668065 -0.08088077 0 0 Z " fill="#1B1441" transform="translate(1125,397)"/>
  <path d="M0 0 C16.82288309 0.02638884 16.82288309 0.02638884 21.29223633 3.41357422 C26.53013971 8.94657075 25.8273644 16.55352413 25.80834961 23.68066406 C25.81010193 24.49937988 25.81185425 25.3180957 25.81365967 26.16162109 C25.81803262 28.84588794 25.81515798 31.53008805 25.81176758 34.21435547 C25.81244154 36.08525607 25.81341233 37.95615658 25.81466675 39.82705688 C25.8161372 43.73562458 25.81400869 47.64416935 25.80932617 51.55273438 C25.80360552 56.57342522 25.80692671 61.59406288 25.81289864 66.61475182 C25.81650167 70.47161261 25.81536727 74.32846065 25.81277084 78.18532181 C25.81210208 80.03777701 25.81292823 81.89023336 25.8152504 83.74268723 C25.81777525 86.32100272 25.81393982 88.89923017 25.80834961 91.47753906 C25.81037384 92.24840851 25.81239807 93.01927795 25.81448364 93.81350708 C25.79322271 99.07665033 25.79322271 99.07665033 24.67895508 100.19091797 C18.73895508 100.19091797 12.79895508 100.19091797 6.67895508 100.19091797 C6.34895508 70.82091797 6.01895508 41.45091797 5.67895508 11.19091797 C2.04895508 10.53091797 -1.58104492 9.87091797 -5.32104492 9.19091797 C-6.68728166 6.45844449 -6.44947092 4.20892894 -6.32104492 1.19091797 C-4.57896255 -0.55116441 -2.32225274 0.02612708 0 0 Z " fill="#1B1441" transform="translate(767.321044921875,391.80908203125)"/>
  <path d="M0 0 C3.37144784 2.50697404 5.53474709 5.1132004 7.5 8.8125 C7.4375 10.8125 7.4375 10.8125 5.375 13.4375 C2.39435989 15.84737924 0.11976489 16.87052526 -3.5625 17.8125 C-3.5625 17.1525 -3.5625 16.4925 -3.5625 15.8125 C-4.2225 15.8125 -4.8825 15.8125 -5.5625 15.8125 C-5.5625 15.1525 -5.5625 14.4925 -5.5625 13.8125 C-11.75419602 13.43341657 -16.03290278 13.93250145 -21.5625 16.8125 C-23.24012105 18.49012105 -22.72171031 20.56406556 -22.75195312 22.8671875 C-22.76867065 23.94500488 -22.78538818 25.02282227 -22.8026123 26.13330078 C-22.81618774 27.30618652 -22.82976318 28.47907227 -22.84375 29.6875 C-22.86215942 30.8822998 -22.88056885 32.07709961 -22.89953613 33.30810547 C-22.95850719 37.14285183 -23.01123442 40.97764333 -23.0625 44.8125 C-23.12989993 49.8542668 -23.20356897 54.89588232 -23.28125 59.9375 C-23.29482544 61.11038574 -23.30840088 62.28327148 -23.3223877 63.49169922 C-23.33910522 64.5695166 -23.35582275 65.64733398 -23.37304688 66.7578125 C-23.39183899 68.18891357 -23.39183899 68.18891357 -23.41101074 69.64892578 C-23.5625 71.8125 -23.5625 71.8125 -24.5625 72.8125 C-27.42517567 72.88575168 -30.263219 72.90488205 -33.125 72.875 C-33.93130859 72.87048828 -34.73761719 72.86597656 -35.56835938 72.86132812 C-37.56643756 72.84950518 -39.56447783 72.83156914 -41.5625 72.8125 C-41.57280746 72.08222595 -41.58311493 71.3519519 -41.59373474 70.59954834 C-41.69175887 63.71356277 -41.79428031 56.82765722 -41.90183926 49.94181442 C-41.95697655 46.40183307 -42.01038161 42.86184332 -42.05981445 39.32177734 C-42.11673585 35.25088687 -42.18121557 31.1801465 -42.24609375 27.109375 C-42.26280624 25.83946716 -42.27951874 24.56955933 -42.29673767 23.26116943 C-42.31668289 22.08024719 -42.33662811 20.89932495 -42.35717773 19.68261719 C-42.37272202 18.64337097 -42.3882663 17.60412476 -42.40428162 16.53338623 C-42.54343589 14.14034603 -42.87981107 12.10105925 -43.5625 9.8125 C-44.20058594 9.75191406 -44.83867188 9.69132812 -45.49609375 9.62890625 C-46.32238281 9.54511719 -47.14867188 9.46132813 -48 9.375 C-48.82371094 9.29378906 -49.64742188 9.21257812 -50.49609375 9.12890625 C-52.5625 8.8125 -52.5625 8.8125 -53.5625 7.8125 C-53.70365161 5.14191149 -53.60497107 2.48817762 -53.5625 -0.1875 C-50.1668303 -0.27495946 -46.77145227 -0.32804444 -43.375 -0.375 C-42.41529297 -0.40013672 -41.45558594 -0.42527344 -40.46679688 -0.45117188 C-35.21932194 -0.50564393 -31.92075561 -0.41176289 -27.5625 2.8125 C-24.33879765 3.0674012 -24.33879765 3.0674012 -21.1875 0.8125 C-14.63837586 -2.59547016 -6.88246339 -2.29415446 0 0 Z " fill="#1B1543" transform="translate(168.5625,419.1875)"/>
  <path d="M0 0 C5.61 0 11.22 0 17 0 C18.67960699 1.67960699 18.13183795 3.74587879 18.14663696 5.98872375 C18.14618378 6.70199326 18.14573059 7.41526276 18.14526367 8.15014648 C18.14862228 8.89810486 18.1519809 9.64606323 18.15544128 10.41668701 C18.16497902 12.90150592 18.1668958 15.38625765 18.16796875 17.87109375 C18.17117938 19.59123259 18.17454329 21.31137115 18.17805481 23.0315094 C18.18405315 26.64218784 18.18589399 30.25284232 18.18530273 33.86352539 C18.18520107 38.49870985 18.19885428 43.13374127 18.21607494 47.76888943 C18.22717319 51.32299002 18.22922261 54.87705336 18.22869301 58.43116951 C18.22987638 60.14045807 18.23431801 61.8497475 18.24202538 63.55901909 C18.25178159 65.9462759 18.24896472 68.3331972 18.24291992 70.72045898 C18.24853943 71.43170425 18.25415894 72.14294952 18.25994873 72.87574768 C18.22831574 77.77168426 18.22831574 77.77168426 16 80 C10.72 80 5.44 80 0 80 C0 53.6 0 27.2 0 0 Z " fill="#1A1441" transform="translate(605,154)"/>
  <path d="M0 0 C2.32404376 1.75873582 4.32789296 3.61838503 6.3125 5.75 C7.075625 4.780625 7.83875 3.81125 8.625 2.8125 C10.57998815 0.32913668 11.16900159 -0.2021672 14.3125 -1.25 C19.33292893 -1.62188362 22.30983424 -1.38722452 26.3125 1.75 C29.51567953 4.69346227 30.61710583 6.92508251 30.875 11.1875 C30.68816038 14.69074293 30.1763542 15.991549 28.375 19.1875 C24.52680335 22.40741965 21.33665554 23.67296865 16.3125 23.75 C13.65379658 23.05494591 11.7446934 22.09546869 9.3125 20.75 C9.3125 20.09 9.3125 19.43 9.3125 18.75 C8.6525 18.75 7.9925 18.75 7.3125 18.75 C6.9825 17.76 6.6525 16.77 6.3125 15.75 C5.673125 16.69875 5.03375 17.6475 4.375 18.625 C1.55171643 21.99214556 -1.12435276 22.99270571 -5.40625 23.69921875 C-9.96625604 23.80072573 -13.11558562 22.11232579 -16.5625 19.125 C-18.30780014 15.44047749 -18.81844333 11.81651784 -18.6875 7.75 C-17.2672027 4.48331621 -15.42531644 2.0315137 -12.6875 -0.25 C-8.1997634 -1.7459122 -4.34959007 -2.02306515 0 0 Z " fill="#1A1441" transform="translate(152.6875,349.25)"/>
  <path d="M0 0 C2.13652108 1.85591808 3.39923373 3.62466941 5 6 C5.5259375 4.8553125 5.5259375 4.8553125 6.0625 3.6875 C8.50380734 0.30117046 10.95067459 -1.24609488 15 -2 C19.83362658 -1.81252376 23.04920095 -0.95079905 26.5 2.5 C28.99310286 6.65517143 29.33339254 9.08245997 29 14 C27.48007896 17.18459646 25.71704041 19.73579966 23 22 C18.5122634 23.4959122 14.66209007 23.77306515 10.3125 21.75 C7.98845624 19.99126418 5.98460704 18.13161497 4 16 C3.236875 16.969375 2.47375 17.93875 1.6875 18.9375 C-0.26748815 21.42086332 -0.85650159 21.9521672 -4 23 C-9.03762138 23.37315714 -11.93168612 23.05123541 -16 20 C-16.5775 19.608125 -17.155 19.21625 -17.75 18.8125 C-19.82824946 15.79903828 -20.11120337 12.56504924 -20 9 C-18.57878841 4.43716277 -17.27547031 1.33207472 -13 -1 C-8.42393593 -2.49639226 -4.41922282 -1.76926181 0 0 Z " fill="#1A1441" transform="translate(360,219)"/>
  <path d="M0 0 C2.5625 2 2.5625 2 4 4 C4 4.66 4 5.32 4 6 C4.680625 5.236875 5.36125 4.47375 6.0625 3.6875 C9.6569282 0.39898058 12.97484949 -2.08067068 18.05078125 -1.9453125 C22.0367206 -1.20967774 23.88930144 -0.10127741 26.9375 2.6875 C29.27737736 6.44548485 30.07765522 8.57365252 30 13 C28.66044959 16.79930966 26.76516519 19.35891565 23.6875 21.9375 C19.00094254 23.79032504 15.38824106 23.49767132 10.6875 21.8125 C7.66021452 19.77084235 6.938187 18.47129192 6 15 C5.34 15 4.68 15 4 15 C3.731875 15.598125 3.46375 16.19625 3.1875 16.8125 C1.28837651 20.31088537 -0.20036361 21.73345454 -4 23 C-8.25160217 23.40109454 -10.5006973 23.26378256 -14.3125 21.25 C-17.43038112 18.63968093 -18.81412712 16.81777381 -19.23046875 12.74609375 C-19.21628906 11.98425781 -19.20210937 11.22242188 -19.1875 10.4375 C-19.18105469 9.67308594 -19.17460938 8.90867188 -19.16796875 8.12109375 C-18.89493641 4.67326681 -18.25133802 3.23095926 -15.6875 0.875 C-10.3614738 -2.84083223 -5.93391177 -2.05781527 0 0 Z " fill="#1A1441" transform="translate(79,219)"/>
  <path d="M0 0 C3.62158086 2.03849461 6.32381467 4.18254576 7.80078125 8.15234375 C8.48848608 12.2160541 8.24828227 15.21249995 6.3125 18.875 C3.7776221 22.30051067 1.9168185 24.58581309 -2.33203125 25.50390625 C-6.94853466 25.61295751 -10.27945242 25.37633705 -14.0625 22.5625 C-17.18493738 19.43268097 -18.06616942 16.61810966 -18.19140625 12.2421875 C-17.87185383 8.49885919 -17.0453295 6.16096378 -15 3 C-10.24083612 -0.71107835 -5.84946321 -1.91436978 0 0 Z " fill="#1A1441" transform="translate(789,216)"/>
  <path d="M0 0 C2.875 2.5625 2.875 2.5625 5 5 C5.33 5.33 5.66 5.66 6 6 C6.43686654 10.53669097 6.53148105 14.68528372 4.8125 18.9375 C2.02621675 22.10809818 -0.09535101 23.74269981 -4.37109375 24.3203125 C-8.59887884 24.50877246 -11.26330493 24.41439098 -15 22.3125 C-18.07026801 18.76250262 -18.88844753 16.22707713 -19.3125 11.5625 C-18.89285642 6.77856324 -17.5996463 3.54632476 -14.125 0.1875 C-9.04803399 -2.64962806 -5.35892205 -2.10529081 0 0 Z " fill="#1A1441" transform="translate(1200,347)"/>
  <path d="M0 0 C0.66 0.33 1.32 0.66 2 1 C-1.3 4.3 -4.6 7.6 -8 11 C-8.66 10.67 -9.32 10.34 -10 10 C-9.04882866 8.8274869 -8.08882991 7.66212985 -7.125 6.5 C-6.32449219 5.52546875 -6.32449219 5.52546875 -5.5078125 4.53125 C-5.01023437 4.0259375 -4.51265625 3.520625 -4 3 C-3.34 3 -2.68 3 -2 3 C-2 2.34 -2 1.68 -2 1 C-1.34 0.67 -0.68 0.34 0 0 Z " fill="#15103A" transform="translate(461,272)"/>
  <path d="M0 0 C0 3 0 3 -1.75 5.04296875 C-2.4925 5.75066406 -3.235 6.45835937 -4 7.1875 C-4.7425 7.90292969 -5.485 8.61835938 -6.25 9.35546875 C-6.8275 9.89816406 -7.405 10.44085938 -8 11 C-8 6.67750434 -5.85084926 5.11604454 -3 2 C-2.01 1.34 -1.02 0.68 0 0 Z " fill="#110D3B" transform="translate(711,452)"/>
  <path d="M0 0 C1.48831242 0.00667405 2.97660807 0.01863442 4.46484375 0.03515625 C5.22345703 0.03966797 5.98207031 0.04417969 6.76367188 0.04882812 C8.64326246 0.06064945 10.52281274 0.07858547 12.40234375 0.09765625 C12.40234375 0.42765625 12.40234375 0.75765625 12.40234375 1.09765625 C11.42652344 1.1234375 10.45070313 1.14921875 9.4453125 1.17578125 C8.17300781 1.2325 6.90070312 1.28921875 5.58984375 1.34765625 C4.32527344 1.3940625 3.06070313 1.44046875 1.7578125 1.48828125 C-1.66918464 1.77021846 -1.66918464 1.77021846 -3.546875 4.14453125 C-3.89363281 4.7890625 -4.24039063 5.43359375 -4.59765625 6.09765625 C-4.64037725 4.4315372 -4.63829457 2.7638274 -4.59765625 1.09765625 C-3.59765625 0.09765625 -3.59765625 0.09765625 0 0 Z " fill="#0D0A3A" transform="translate(765.59765625,391.90234375)"/>
  <path d="M0 0 C0.66 0.33 1.32 0.66 2 1 C-0.97 3.97 -3.94 6.94 -7 10 C-7.66 9.67 -8.32 9.34 -9 9 C-7.625 7 -7.625 7 -6 5 C-5.34 5 -4.68 5 -4 5 C-3.67 4.01 -3.34 3.02 -3 2 C-2.01 1.34 -1.02 0.68 0 0 Z " fill="#160D33" transform="translate(191,423)"/>
</svg>