<?xml version="1.0" encoding="UTF-8"?>
<svg version="1.1" xmlns="http://www.w3.org/2000/svg" width="565" height="222">
<path d="M0 0 C2.64 0 5.28 0 8 0 C8.06963247 10.81403247 8.12287851 21.62801125 8.15543652 32.4422226 C8.17106586 37.46416669 8.1922542 42.48595693 8.22631836 47.5078125 C8.25900927 52.35778813 8.27687355 57.20761614 8.28463173 62.05769348 C8.29015779 63.90438662 8.30094878 65.75107204 8.31719017 67.59770203 C8.33909397 70.19226287 8.34196155 72.78622036 8.34057617 75.38085938 C8.351362 76.1375592 8.36214783 76.89425903 8.3732605 77.67388916 C8.33541998 84.26008015 6.91176093 89.68576308 2.625 94.875 C-2.00166059 98.62039191 -5.81932112 99.25072307 -11.70431519 99.26742554 C-12.36518383 99.27195665 -13.02605248 99.27648776 -13.70694745 99.28115618 C-15.91391564 99.29378219 -18.12063648 99.29218102 -20.32763672 99.29052734 C-21.91305864 99.2965137 -23.49847764 99.3033195 -25.08389282 99.31088257 C-29.38559807 99.32853827 -33.68722372 99.33323775 -37.9889617 99.33451414 C-40.67775009 99.33593648 -43.36651829 99.34020762 -46.05530167 99.34550858 C-55.43906182 99.36400701 -64.82276518 99.37217937 -74.20654297 99.37060547 C-82.94813608 99.36940393 -91.68948234 99.39050919 -100.43101299 99.4220928 C-107.94115161 99.44825861 -115.45120962 99.45897265 -122.96139348 99.45769465 C-127.44467609 99.45718513 -131.92773927 99.46286278 -136.41097641 99.48405075 C-140.6283485 99.50343849 -144.84529193 99.50355412 -149.06267929 99.48901749 C-150.60780464 99.48692898 -152.15295686 99.49163284 -153.69803619 99.5037384 C-168.28406874 99.61058987 -168.28406874 99.61058987 -174 95 C-177.97406023 89.98013444 -179.12938371 86.23595042 -179.11352539 79.95605469 C-179.11341209 78.45495148 -179.11341209 78.45495148 -179.11329651 76.92352295 C-179.10813522 75.85047913 -179.10297394 74.7774353 -179.09765625 73.671875 C-179.09553383 72.01566132 -179.09553383 72.01566132 -179.09336853 70.32598877 C-179.08777258 66.80063158 -179.07522079 63.27533798 -179.0625 59.75 C-179.05748448 57.35937592 -179.05292166 54.96875084 -179.04882812 52.578125 C-179.03780447 46.71872832 -179.02107033 40.8593687 -179 35 C-180.32 34.67 -181.64 34.34 -183 34 C-183 33.01 -183 32.02 -183 31 C-177.39 31 -171.78 31 -166 31 C-166.33 31.99 -166.66 32.98 -167 34 C-168.485 34.495 -168.485 34.495 -170 35 C-170.07609679 42.17156168 -170.12861962 49.34301914 -170.16479492 56.51489258 C-170.17987654 58.95438528 -170.20034469 61.3938509 -170.22631836 63.83325195 C-170.26272812 67.34072559 -170.27973289 70.84784054 -170.29296875 74.35546875 C-170.30845261 75.44522507 -170.32393646 76.53498138 -170.33988953 77.65776062 C-170.46444655 84.87195661 -170.46444655 84.87195661 -167 91 C-163.79593538 93.13604308 -163.00399253 93.24208908 -159.33203125 93.1953125 C-158.43935547 93.18886719 -157.54667969 93.18242187 -156.62695312 93.17578125 C-155.69818359 93.15902344 -154.76941406 93.14226562 -153.8125 93.125 C-152.87212891 93.11597656 -151.93175781 93.10695313 -150.96289062 93.09765625 C-148.64167032 93.07409056 -146.32096356 93.04119116 -144 93 C-144.63035156 92.12859375 -145.26070312 91.2571875 -145.91015625 90.359375 C-149.36808588 84.80083391 -150.42531171 78.79508913 -149.6953125 72.28125 C-147.78671349 64.64685396 -143.4894514 59.32630093 -137 55 C-129.95232535 52.55488839 -120.15092165 52.51249671 -113.375 55.6875 C-107.78067608 59.15816517 -103.59411742 63.47638101 -102 70 C-101.07946369 77.40919467 -102.02397128 83.61707764 -106 90 C-106.99 90.99 -107.98 91.98 -109 93 C-101.08 93 -93.16 93 -85 93 C-85.99 91.02 -86.98 89.04 -88 87 C-89.30500031 81.57922948 -89.18656372 77.10532539 -87 72 C-83.69996182 66.73465245 -79.95866824 63.88194198 -74 62 C-71.10049329 61.59986002 -68.2441449 61.58223053 -65.3203125 61.59375 C-64.50811249 61.58291382 -63.69591248 61.57207764 -62.85910034 61.56091309 C-60.28098518 61.52687611 -57.70330944 61.51111132 -55.125 61.5 C-51.73135595 61.48531443 -48.33867317 61.45141701 -44.9453125 61.40625 C-44.18251984 61.40927124 -43.41972717 61.41229248 -42.63381958 61.41540527 C-36.82014608 61.33570175 -29.69276814 60.74995865 -25.42947388 56.39611816 C-24 55 -24 55 -21 55 C-21.77639663 60.85362198 -24.81469854 64.03779564 -29 68 C-34.61102211 71.14764655 -41.04159459 71.11336169 -47.33984375 70.9921875 C-48.7467376 70.9746728 -50.1536391 70.95776436 -51.56054688 70.94140625 C-53.75046487 70.91049669 -55.93998975 70.87494732 -58.12963867 70.82861328 C-60.26225489 70.78596575 -62.39441502 70.76275558 -64.52734375 70.7421875 C-65.79312256 70.7201123 -67.05890137 70.69803711 -68.36303711 70.67529297 C-72.62636283 71.0559215 -75.21942754 72.03502071 -79 74 C-80.56428238 77.12856476 -80.28007086 79.52712131 -80 83 C-78.39093484 87.42094636 -76.96171815 90.35885457 -73 93 C-70.06307098 93.32575734 -70.06307098 93.32575734 -66.68017578 93.30639648 C-64.72266891 93.33037758 -64.72266891 93.33037758 -62.72561646 93.35484314 C-61.29885244 93.36121981 -59.87208373 93.36661256 -58.4453125 93.37109375 C-56.9818411 93.38006111 -55.51837064 93.38918297 -54.05490112 93.39845276 C-50.98661064 93.41494274 -47.91842928 93.42264281 -44.85009766 93.42553711 C-40.92336342 93.43092009 -36.99765835 93.46859465 -33.07121468 93.51428127 C-30.04796632 93.54406368 -27.0249654 93.5512609 -24.0015831 93.55226326 C-22.5543026 93.55646356 -21.10702123 93.56889054 -19.65988541 93.58978081 C-17.63297107 93.61671048 -15.60568473 93.60876042 -13.57861328 93.59936523 C-12.42628204 93.60443588 -11.27395081 93.60950653 -10.08670044 93.61473083 C-6.01897172 92.80462363 -4.54665306 91.21097927 -2 88 C-0.34130058 84.26184153 -0.82481966 79.87318825 -0.79467773 75.83496094 C-0.78477814 75.0150769 -0.77487854 74.19519287 -0.76467896 73.35046387 C-0.73313517 70.64513011 -0.70833471 67.93977881 -0.68359375 65.234375 C-0.66301807 63.35678658 -0.64202144 61.47920273 -0.62062073 59.60162354 C-0.56546345 54.6631643 -0.5160262 49.7246637 -0.46777344 44.78613281 C-0.41751208 39.74540532 -0.36185021 34.70473779 -0.30664062 29.6640625 C-0.19913665 19.77609291 -0.09767445 9.88807123 0 0 Z M-138.8125 65.125 C-141.5319674 71.70897372 -141.70737603 78.29185148 -139.15625 84.953125 C-136.62124343 89.44077176 -132.84087102 92.38637633 -128 94 C-122.97957107 94.37188362 -120.00266576 94.13722452 -116 91 C-111.01503785 85.46115317 -110.69719531 81.17665412 -110.79296875 73.94140625 C-111.17390106 68.52929255 -113.37008863 65.38707951 -117.0625 61.625 C-120.78675816 58.62665656 -123.93200281 58.23577298 -128.6328125 58.54296875 C-133.20273523 59.42528056 -135.86059296 61.66414347 -138.8125 65.125 Z " fill="#FFFFFF" transform="translate(284,51)"/>
<path d="M0 0 C3.04236714 1.33759245 4.87624998 2.70592445 7 5.25 C7.60457031 5.96285156 8.20914063 6.67570313 8.83203125 7.41015625 C9.54746094 8.26480469 10.26289063 9.11945312 11 10 C12.89006595 12.23410203 14.78773519 14.46164249 16.6875 16.6875 C17.44716064 17.58009521 17.44716064 17.58009521 18.22216797 18.49072266 C22.39956794 23.37022859 26.72716716 28.09500946 31.16674805 32.73706055 C33.61450532 35.33142503 35.64762661 37.67475249 37 41 C35.35 42.32 33.7 43.64 32 45 C24.15066011 36.48353719 16.37265829 27.93655551 9 19 C2.39472775 25.39219895 -3.6620542 32.29230245 -9.4375 39.4375 C-13.29941675 44.21284402 -17.37674224 48.73667685 -21.53515625 53.25390625 C-23.92707297 55.91875166 -26.19254884 58.64831825 -28.4375 61.4375 C-32.23431418 66.1496176 -36.2344942 70.61651758 -40.37084961 75.02905273 C-42.47185514 77.27966666 -44.28583751 79.42875626 -46 82 C-48.33837891 82.34057617 -48.33837891 82.34057617 -51.2265625 82.29296875 C-52.2578125 82.28330078 -53.2890625 82.27363281 -54.3515625 82.26367188 C-55.97191406 82.2259668 -55.97191406 82.2259668 -57.625 82.1875 C-58.71296875 82.17396484 -59.8009375 82.16042969 -60.921875 82.14648438 C-63.61507409 82.11104754 -66.30729374 82.06164331 -69 82 C-64.87696086 73.41193935 -57.53896736 66.41684628 -51.09033203 59.48461914 C-47.28682136 55.37377419 -43.7578357 51.07791708 -40.24609375 46.71484375 C-37.11832821 42.93432714 -33.78726117 39.35519125 -30.46484375 35.74609375 C-28.07292703 33.08124834 -25.80745116 30.35168175 -23.5625 27.5625 C-19.89167959 23.00964501 -16.02230144 18.71331664 -12.04003906 14.43676758 C-7.77047254 9.82099951 -3.84092934 4.97449874 0 0 Z " fill="#BD9B5F" transform="translate(294,0)"/>
<path d="M0 0 C5.32754657 3.11142903 8.40889807 7.03919422 10.375 12.9375 C10.52806664 15.35255142 10.6488577 17.76971734 10.75 20.1875 C11.05093435 25.68776521 11.49080682 30.1674882 14.375 34.9375 C17.89324511 37.28299674 19.23275694 37.51741403 23.375 36.9375 C26.79196786 34.20392571 28.65204701 32.23221345 29.375 27.9375 C29.45559997 25.9857673 29.48262243 24.03149582 29.47265625 22.078125 C29.46943359 20.96308594 29.46621094 19.84804687 29.46289062 18.69921875 C29.45451172 17.54035156 29.44613281 16.38148437 29.4375 15.1875 C29.43298828 14.01316406 29.42847656 12.83882812 29.42382812 11.62890625 C29.41205094 8.73171928 29.39560326 5.83463546 29.375 2.9375 C28.055 2.2775 26.735 1.6175 25.375 0.9375 C25.375 -0.0525 25.375 -1.0425 25.375 -2.0625 C36.595 -2.0625 47.815 -2.0625 59.375 -2.0625 C59.045 -0.7425 58.715 0.5775 58.375 1.9375 C57.385 1.9375 56.395 1.9375 55.375 1.9375 C55.38547363 3.02168213 55.39594727 4.10586426 55.40673828 5.22290039 C55.44310643 9.26892762 55.46596137 13.31494057 55.48486328 17.36108398 C55.49488268 19.10785355 55.50850195 20.8546065 55.52587891 22.60131836 C55.55030669 25.12097285 55.56152389 27.64040439 55.5703125 30.16015625 C55.58063507 30.93335709 55.59095764 31.70655792 55.60159302 32.50318909 C55.60293948 39.10118535 54.76254263 45.37354602 50.21484375 50.515625 C46.16432535 53.64596193 41.15062623 55.2161419 36.375 56.9375 C36.375 55.9475 36.375 54.9575 36.375 53.9375 C38.28990974 52.17845501 40.33693339 50.68596842 42.4296875 49.14453125 C46.89387513 44.07974007 46.69202793 36.5143259 46.7890625 30.0625 C46.80842865 29.25256592 46.8277948 28.44263184 46.8477478 27.6081543 C46.90696002 25.05137266 46.95369246 22.49454455 47 19.9375 C47.03823367 18.1913879 47.07728843 16.44529358 47.1171875 14.69921875 C47.21261252 10.4454589 47.29685549 6.19161096 47.375 1.9375 C44.405 1.9375 41.435 1.9375 38.375 1.9375 C38.39071045 2.64769287 38.4064209 3.35788574 38.42260742 4.08959961 C38.4855114 7.3513166 38.52416537 10.61290537 38.5625 13.875 C38.58763672 14.99197266 38.61277344 16.10894531 38.63867188 17.25976562 C38.71017783 25.387609 38.24316708 32.39003019 33 38.875 C28.14657839 42.6884027 24.03549628 43.43720292 17.9453125 43.328125 C12.32351374 42.47374829 8.21056823 38.93728216 4.375 34.9375 C4.375 35.5975 4.375 36.2575 4.375 36.9375 C2.73046875 38.19140625 2.73046875 38.19140625 0.5625 39.5 C-0.14519531 39.93441406 -0.85289063 40.36882812 -1.58203125 40.81640625 C-7.68151854 44.16354363 -15.30194523 43.64503761 -22.01171875 42.546875 C-27.71127917 40.80005491 -31.33942329 36.78594563 -34.625 31.9375 C-37.74513228 25.61375363 -37.91682396 17.99322638 -35.78515625 11.30078125 C-29.05191058 -2.05235579 -13.366821 -6.14914088 0 0 Z M-26.5 9.375 C-28.43953702 15.51686723 -29.02777536 22.35262964 -26.640625 28.453125 C-23.82123839 33.15210268 -20.88918949 36.18277017 -15.625 37.9375 C-10.62001383 38.41874867 -7.30382723 37.86999907 -3.1328125 35.1953125 C0.88698889 31.84200668 1.91378989 27.050502 2.375 22.015625 C2.375 15.78086386 0.30739621 10.76872963 -3.625 5.9375 C-7.46143932 2.55240648 -11.25932308 2.42117103 -16.1875 2.58984375 C-21.02125799 3.27927398 -23.6069382 5.61401966 -26.5 9.375 Z " fill="#FFFFFF" transform="translate(39.625,107.0625)"/>
<path d="M0 0 C5.28 0 10.56 0 16 0 C16 0.99 16 1.98 16 3 C15.01 3.33 14.02 3.66 13 4 C12.94921845 11.15328942 12.91423207 18.30653219 12.89013672 25.45996094 C12.88008987 27.8925958 12.86645006 30.32521862 12.84912109 32.7578125 C12.82481533 36.25784277 12.81350356 39.75771312 12.8046875 43.2578125 C12.79436493 44.34240753 12.78404236 45.42700256 12.77340698 46.54446411 C12.77263514 51.75921599 12.87694274 56.12945687 15 61 C16.41433206 61.2236337 17.83167618 61.42826476 19.25 61.625 C20.03890625 61.74101562 20.8278125 61.85703125 21.640625 61.9765625 C24.44953382 62.00446557 25.73117746 61.6579857 28 60 C30.02896823 56.29745607 30.2429712 52.98156325 30.375 48.8125 C30.95606116 40.38235037 32.56543014 33.84306783 38.9375 28 C46.15694546 22.0292459 54.05814215 22.24850344 63 23 C69.22329607 24.59400375 73.57586134 28.66104696 77 34 C79.81757298 41.04393246 80.03643698 48.00393874 77.10546875 54.98046875 C74.24423471 60.20752881 70.01794397 65.60309125 64.203125 67.59375 C55.36939836 69.22266413 47.80273085 68.83444216 40.0859375 64.09375 C37.80212505 62.69041414 37.80212505 62.69041414 34 63 C32.29749607 64.28725907 30.62935241 65.62131719 29 67 C24.14634359 68.61788547 18.84366871 68.93894722 13.9296875 67.31640625 C8.64558101 64.55997841 5.84966663 60.54899988 4 55 C3.89976306 53.36933794 3.85440546 51.73501334 3.84228516 50.10131836 C3.83202301 49.10696274 3.82176086 48.11260712 3.81118774 47.08811951 C3.80388641 46.01618851 3.79658508 44.94425751 3.7890625 43.83984375 C3.76100851 41.5800707 3.73234416 39.32030516 3.703125 37.06054688 C3.66174536 33.48982843 3.62486595 29.91925244 3.59863281 26.34838867 C3.57115125 22.90774485 3.52529591 19.46774313 3.4765625 16.02734375 C3.47330963 14.95338852 3.47005676 13.87943329 3.46670532 12.77293396 C3.45013885 11.7817305 3.43357239 10.79052704 3.41650391 9.76928711 C3.40841705 8.89453232 3.4003302 8.01977753 3.39199829 7.11851501 C3.26263885 6.41940506 3.13327942 5.7202951 3 5 C2.01 4.34 1.02 3.68 0 3 C0 2.01 0 1.02 0 0 Z M42.1875 34 C39.28391953 38.89024079 39.21843052 44.6583289 40.49609375 50.12109375 C42.35754632 55.68441809 45.13539134 59.41692679 50.375 62.3125 C54.80254399 63.47209485 58.45560108 63.68240882 62.6875 61.8125 C66.56377112 58.77434155 69.0766537 55.86532473 70 51 C70.54837343 44.70425119 70.27766781 39.57203528 67 34 C63.32002297 30.22189025 60.06542293 27.85925686 54.75 27.6875 C49.15095362 27.75051178 45.9262304 29.87450439 42.1875 34 Z " fill="#FFFFFF" transform="translate(383,82)"/>
<path d="M0 0 C2.64 0 5.28 0 8 0 C13.18621144 10.25118676 18.20085516 20.56185998 23 31 C28.18621144 20.74881324 33.20085516 10.43814002 38 0 C40.64 0 43.28 0 46 0 C46.029729 1.73286255 46.029729 1.73286255 46.06005859 3.50073242 C46.13626941 7.79668561 46.22496289 12.09230692 46.31738281 16.38793945 C46.35560866 18.24529456 46.39047263 20.10272208 46.421875 21.96020508 C46.46766461 24.63388912 46.52563579 27.30707742 46.5859375 29.98046875 C46.59748871 30.80773972 46.60903992 31.63501068 46.62094116 32.48735046 C46.72813568 36.69768272 46.88208756 40.24179597 49 44 C49.99 44.66 50.98 45.32 52 46 C52 46.99 52 47.98 52 49 C47.02666392 49.29254918 43.9563029 49.16504232 40 46 C37.91766342 42.73233337 37.70324424 39.97264512 37.5859375 36.140625 C37.55032715 35.13547852 37.5147168 34.13033203 37.47802734 33.09472656 C37.44402832 31.8259668 37.4100293 30.55720703 37.375 29.25 C37.25125 25.2075 37.1275 21.165 37 17 C32.71 26.57 28.42 36.14 24 46 C22.35 45.67 20.7 45.34 19 45 C17.23901367 42.31616211 17.23901367 42.31616211 15.66796875 38.77734375 C15.3864949 38.15726944 15.10502106 37.53719513 14.8150177 36.89833069 C13.92132709 34.91883582 13.05433124 32.92888204 12.1875 30.9375 C11.58570768 29.59232668 10.98221128 28.24791432 10.37695312 26.90429688 C8.8946595 23.61234437 7.44903794 20.30754048 6 17 C5.67 26.57 5.34 36.14 5 46 C3.35 46 1.7 46 0 46 C0 30.82 0 15.64 0 0 Z " fill="#FFFFFF" transform="translate(107,173)"/>
<path d="M0 0 C4.86021119 2.81380648 8.24467402 6.31914911 10.04370117 11.77636719 C10.96544598 16.8348204 10.70932224 22.06210275 10.75 27.1875 C10.77900391 28.39019531 10.80800781 29.59289062 10.83789062 30.83203125 C10.89382283 38.67114527 10.3862301 44.3986654 5.06030273 50.52050781 C2.41423668 53.02381138 0.70056818 53.91314183 -2.9375 54.25 C-3.80375 54.146875 -4.67 54.04375 -5.5625 53.9375 C-4.5625 50.9375 -4.5625 50.9375 -2.625 49.0625 C0.40556033 45.94010451 1.4375 43.26721708 1.4375 38.9375 C0.40625 39.5975 -0.625 40.2575 -1.6875 40.9375 C-8.22768344 44.19595438 -16.0437933 44.14582505 -23.03125 42.27734375 C-28.76848152 39.72868898 -32.9608561 35.20660877 -35.703125 29.609375 C-37.72224903 23.33173484 -37.7283226 15.56554123 -35 9.5 C-27.76681578 -2.58938565 -12.57071762 -5.72938254 0 0 Z M-25.375 7.9375 C-28.62892386 13.41779282 -28.09754178 19.77708838 -27.5625 25.9375 C-26.00310994 30.86144362 -22.81912337 34.09975109 -18.5625 36.9375 C-13.28026236 38.69824588 -9.18564139 38.73375804 -4.25 36.3125 C0.50431227 32.11101474 2.00037943 27.48098959 2.5 21.30859375 C2.35139446 15.670871 0.5746732 11.3079395 -3 7 C-7.28350371 3.55230189 -9.86425748 2.52518876 -15.53515625 2.68359375 C-19.67814922 3.2024657 -22.60340453 4.87918776 -25.375 7.9375 Z " fill="#FFFFFF" transform="translate(500.5625,107.0625)"/>
<path d="M0 0 C3.9998593 -0.08783475 7.99946704 -0.14067102 12 -0.1875 C13.12535156 -0.21263672 14.25070313 -0.23777344 15.41015625 -0.26367188 C23.03558711 -0.33056162 29.37825181 -0.06455616 35.4375 5.0625 C38.38028364 8.71155172 38.31542725 11.34744813 38 16 C36.625 18.9375 36.625 18.9375 35 21 C34.34 21 33.68 21 33 21 C33 21.66 33 22.32 33 23 C33.78375 23.268125 34.5675 23.53625 35.375 23.8125 C38 25 38 25 40 28 C40.66036734 32.03866761 40.89569891 36.18269353 39.0546875 39.91796875 C36.46828063 43.21197751 33.91170829 44.75198387 30 46 C27.22924805 46.22705078 27.22924805 46.22705078 24.26171875 46.1953125 C22.81865356 46.18781982 22.81865356 46.18781982 21.34643555 46.18017578 C20.13898682 46.16196777 18.93153809 46.14375977 17.6875 46.125 C13.830625 46.08375 9.97375 46.0425 6 46 C5.67 32.47 5.34 18.94 5 5 C3.35 4.67 1.7 4.34 0 4 C0 2.68 0 1.36 0 0 Z M15 5 C15 9.95 15 14.9 15 20 C21.2945423 20.46222791 21.2945423 20.46222791 27.0625 18.375 C29.22742891 16.10790804 29.22742891 16.10790804 29.5625 13 C28.88701736 9.3974259 27.83326787 8.24994801 25 6 C22.71294169 4.85647084 21.40735238 4.89665561 18.875 4.9375 C16.956875 4.9684375 16.956875 4.9684375 15 5 Z M15 25 C15 30.28 15 35.56 15 41 C18.50563305 42.75281652 22.26927966 41.81689911 26 41 C29.14849606 39.58329289 29.14849606 39.58329289 31 37 C31.83333333 33.5 31.83333333 33.5 31 30 C28.30781868 27.15825305 25.90222411 25.45908519 22 25 C19.69 25 17.38 25 15 25 Z " fill="#FFFFFF" transform="translate(0,173)"/>
<path d="M0 0 C5.28 0 10.56 0 16 0 C15.67 1.32 15.34 2.64 15 4 C14.34 4 13.68 4 13 4 C13.06910558 8.03904921 13.15718016 12.07720578 13.26245117 16.11547852 C13.29559806 17.48775958 13.32366171 18.86017362 13.34643555 20.23266602 C13.38016766 22.21137766 13.4340149 24.18971376 13.48828125 26.16796875 C13.51446533 27.35672607 13.54064941 28.5454834 13.56762695 29.77026367 C14.03531893 33.263825 14.90543572 35.19216035 17 38 C19.88861709 39.44430855 21.79647701 39.37688506 25 39 C28.10164769 36.44975635 29.72566416 34.82300753 31 31 C31.15029988 28.93637009 31.24844448 26.86876085 31.31640625 24.80078125 C31.37924805 22.98803711 31.37924805 22.98803711 31.44335938 21.13867188 C31.48267578 19.87603516 31.52199219 18.61339844 31.5625 17.3125 C31.62727539 15.40114258 31.62727539 15.40114258 31.69335938 13.45117188 C31.7995486 10.30089148 31.90159533 7.15053161 32 4 C29.525 3.505 29.525 3.505 27 3 C27.33 2.01 27.66 1.02 28 0 C33.28 0 38.56 0 44 0 C43.67 1.32 43.34 2.64 43 4 C42.01 4 41.02 4 40 4 C40.01571045 4.74572266 40.0314209 5.49144531 40.04760742 6.25976562 C40.11037588 9.67309843 40.14912339 13.08630931 40.1875 16.5 C40.21263672 17.67304687 40.23777344 18.84609375 40.26367188 20.0546875 C40.33219744 28.18638792 39.98146057 34.39086352 34.625 40.875 C29.63277119 44.91632809 25.65833938 45.22706725 19.40234375 45.265625 C16.85013436 44.98342949 15.20448943 44.2829823 13 43 C12.67 43.845625 12.34 44.69125 12 45.5625 C8.92016468 50.85596695 4.61649888 54.57281879 -0.75 57.5 C-3.25153117 58.05589582 -4.57596327 57.69258192 -7 57 C-6.52949219 56.63648438 -6.05898438 56.27296875 -5.57421875 55.8984375 C-4.95160156 55.39570313 -4.32898438 54.89296875 -3.6875 54.375 C-2.76517578 53.64410156 -2.76517578 53.64410156 -1.82421875 52.8984375 C3.1852901 47.68511565 3.46128432 42.27935647 3.51171875 35.4453125 C3.52966995 34.54376434 3.54762115 33.64221619 3.56611633 32.71334839 C3.6200415 29.85061232 3.65405775 26.98804129 3.6875 24.125 C3.7206888 22.17706046 3.7551799 20.22914264 3.79101562 18.28125 C3.87575772 13.52095274 3.94265359 8.76070292 4 4 C2.68 4 1.36 4 0 4 C0 2.68 0 1.36 0 0 Z " fill="#FFFFFF" transform="translate(512,105)"/>
<path d="M0 0 C3.83318619 -0.08789644 7.66610928 -0.14069087 11.5 -0.1875 C13.11648438 -0.22520508 13.11648438 -0.22520508 14.765625 -0.26367188 C22.31575275 -0.33272792 28.39740222 0.11792177 34.5 5 C36.80148756 9.60297513 36.88514447 13.96148532 36 19 C33.32631966 22.71344492 31.37873809 24.08308476 27 25 C28.21764571 27.09084573 29.44826441 29.17199993 30.6875 31.25 C31.02716797 31.83652344 31.36683594 32.42304688 31.71679688 33.02734375 C34.40888914 37.50577761 37.30411584 40.65205792 42 43 C42 43.99 42 44.98 42 46 C38.89046621 47.5547669 36.43733239 47.28644437 33 47 C27.98693522 44.2823912 25.580574 41.33528454 22.75 36.4375 C21.75226563 34.73400391 21.75226563 34.73400391 20.734375 32.99609375 C20.16203125 32.00738281 19.5896875 31.01867187 19 30 C17.27773504 26.75150023 17.27773504 26.75150023 14 26 C14 32.6 14 39.2 14 46 C11.36 46 8.72 46 6 46 C5.67 32.47 5.34 18.94 5 5 C3.35 4.67 1.7 4.34 0 4 C0 2.68 0 1.36 0 0 Z M14 5 C14 10.28 14 15.56 14 21 C21.38120035 21.61591256 21.38120035 21.61591256 25 19.4375 C27.29138084 17.06209577 27.29138084 17.06209577 27.5625 13.5 C26.92519445 9.53454327 26.1376325 8.39936603 23 6 C20.32917961 4.47825081 20.32917961 4.47825081 14 5 Z " fill="#FFFFFF" transform="translate(243,173)"/>
<path d="M0 0 C5.61 0 11.22 0 17 0 C17 0.99 17 1.98 17 3 C15.02 3.99 15.02 3.99 13 5 C12.98541748 6.04865234 12.97083496 7.09730469 12.95581055 8.17773438 C12.89747367 12.09929082 12.82024563 16.02029415 12.73754883 19.94140625 C12.70446491 21.63272061 12.67638241 23.32414099 12.65356445 25.015625 C12.61971164 27.45878939 12.56738492 29.90099655 12.51171875 32.34375 C12.50213387 33.46299866 12.50213387 33.46299866 12.49235535 34.6048584 C12.32300123 40.7662291 11.16708455 46.45280182 7.0625 51.27734375 C6.381875 51.82519531 5.70125 52.37304688 5 52.9375 C4.319375 53.50339844 3.63875 54.06929687 2.9375 54.65234375 C-2.26513559 58.27111246 -8.95050914 57.50769959 -15 57 C-19.52532424 55.75872768 -22.24105382 53.83883525 -25.375 50.375 C-30.39260125 39.95382818 -29.2136353 28.2898037 -29 17 C-30.65 16.67 -32.3 16.34 -34 16 C-34 15.01 -34 14.02 -34 13 C-28.06 13 -22.12 13 -16 13 C-16 14.32 -16 15.64 -16 17 C-16.99 17.33 -17.98 17.66 -19 18 C-19.08803772 21.49983803 -19.14073608 24.99938638 -19.1875 28.5 C-19.21263672 29.48226562 -19.23777344 30.46453125 -19.26367188 31.4765625 C-19.32609359 37.71873377 -18.74142703 42.3555052 -16 48 C-12.65999341 50.56326087 -10.0565502 51.24092558 -5.9375 51 C-1.72205351 50.26512331 0.38389712 48.40886132 3 45 C4.30463475 40.91861782 4.2264003 36.76312488 4.31640625 32.515625 C4.33718735 31.70003113 4.35796844 30.88443726 4.37937927 30.04412842 C4.44461297 27.44616895 4.50363768 24.84811087 4.5625 22.25 C4.60571014 20.485667 4.64932522 18.72134387 4.69335938 16.95703125 C4.80026745 12.63812116 4.90160827 8.31911216 5 4 C2.525 3.505 2.525 3.505 0 3 C0 2.01 0 1.02 0 0 Z " fill="#FFFFFF" transform="translate(364,105)"/>
<path d="M0 0 C2.64 0 5.28 0 8 0 C8 36.96 8 73.92 8 112 C5.36 112 2.72 112 0 112 C0 75.04 0 38.08 0 0 Z " fill="#FFFFFF" transform="translate(297,38)"/>
<path d="M0 0 C4.64475959 -0.04944066 9.28936596 -0.08573863 13.93432617 -0.10986328 C15.51443144 -0.11992041 17.0945181 -0.13356785 18.67456055 -0.15087891 C20.9458475 -0.17514022 23.21688836 -0.18648582 25.48828125 -0.1953125 C26.54780754 -0.21079636 26.54780754 -0.21079636 27.6287384 -0.22659302 C31.32197792 -0.22743775 32.83919216 -0.10720523 36 2 C37.28317892 5.84953676 37.06643637 8.94738135 37 13 C35.68 13 34.36 13 33 13 C32.71125 12.030625 32.4225 11.06125 32.125 10.0625 C31.35785318 6.89335797 31.35785318 6.89335797 29 6 C24.34005103 5.54741503 19.67317512 5.29738387 15 5 C15 9.95 15 14.9 15 20 C20.94 20 26.88 20 33 20 C33 21.65 33 23.3 33 25 C27.06 25 21.12 25 15 25 C15 30.28 15 35.56 15 41 C17.3925 40.9175 19.785 40.835 22.25 40.75 C22.99668945 40.73420898 23.74337891 40.71841797 24.51269531 40.70214844 C27.90483247 40.52880092 29.7391636 40.20698631 32.421875 38.078125 C34.03089322 36.09219152 34.03089322 36.09219152 35 34 C36.32 34 37.64 34 39 34 C38.74337755 35.44010481 38.46909179 36.8770687 38.1875 38.3125 C38.03667969 39.11300781 37.88585937 39.91351563 37.73046875 40.73828125 C36.86769165 43.40966061 36.25244372 44.32844966 34 46 C31.08911133 46.34057617 31.08911133 46.34057617 27.58203125 46.29296875 C26.4525708 46.28547607 25.32311035 46.2779834 24.15942383 46.27026367 C22.72493896 46.24295166 21.2904541 46.21563965 19.8125 46.1875 C15.254375 46.125625 10.69625 46.06375 6 46 C5.67 32.47 5.34 18.94 5 5 C3.35 4.67 1.7 4.34 0 4 C0 2.68 0 1.36 0 0 Z " fill="#FFFFFF" transform="translate(379,173)"/>
<path d="M0 0 C3.22859718 2.83725207 4.90604916 5.45535905 5.40307617 9.7668457 C5.38736572 10.82991943 5.37165527 11.89299316 5.35546875 12.98828125 C5.34580078 14.14521484 5.33613281 15.30214844 5.32617188 16.49414062 C5.30103516 17.69232422 5.27589844 18.89050781 5.25 20.125 C5.22969727 21.9512793 5.22969727 21.9512793 5.20898438 23.81445312 C5.17369261 26.81425345 5.12438481 29.81314975 5.0625 32.8125 C2.0625 32.8125 -0.9375 32.8125 -3.9375 32.8125 C-4.9275 33.3075 -4.9275 33.3075 -5.9375 33.8125 C-10.72501753 34.39657714 -14.10798303 34.24207129 -18.4375 32 C-21.61807679 29.21699531 -21.85130176 27.58828418 -22.3125 23.4375 C-21.9375 19.8125 -21.9375 19.8125 -19.8125 17 C-14.31451203 12.81674828 -9.59518812 12.58292455 -2.9375 12.8125 C-4.06766255 9.28557328 -4.06766255 9.28557328 -5.9375 5.8125 C-8.36849674 4.57565895 -8.36849674 4.57565895 -10.9375 4.8125 C-14.18599977 6.53476496 -14.18599977 6.53476496 -14.9375 9.8125 C-16.5875 9.8125 -18.2375 9.8125 -19.9375 9.8125 C-20.30271739 3.36032609 -20.30271739 3.36032609 -18.6875 0.9375 C-13.4736633 -2.41425216 -5.56583641 -2.25001898 0 0 Z M-12.9375 20.8125 C-13.6875 23.3125 -13.6875 23.3125 -12.9375 25.8125 C-11.36054368 27.8910608 -11.36054368 27.8910608 -8.9375 28.8125 C-6.54486593 28.14478817 -4.71652615 27.59152615 -2.9375 25.8125 C-2.86601801 24.46006083 -2.85350546 23.10415633 -2.875 21.75 C-2.895625 20.450625 -2.91625 19.15125 -2.9375 17.8125 C-7.15462557 17.45103209 -9.64860421 18.08741491 -12.9375 20.8125 Z " fill="#FFFFFF" transform="translate(181.9375,186.1875)"/>
<path d="M0 0 C3.73939976 2.49293317 7.00433307 5.37425706 8.43359375 9.796875 C9.63087536 16.36340922 9.19945421 22.00427938 5.8125 27.875 C2.12554739 31.67010322 -1.1055166 34.01618401 -6.4375 34.125 C-11.98477388 34.04486282 -15.47543745 32.58706255 -19.4375 28.625 C-23.05990701 22.93264613 -23.57637377 17.79048752 -22.73046875 11.2421875 C-21.72021225 6.8377599 -19.45935699 3.99269251 -16.125 1.0625 C-11.01898681 -2.06699196 -5.47152637 -1.93112695 0 0 Z M-10.8125 6.1875 C-14.36078401 10.20266349 -14.46411757 13.4636357 -14.4140625 18.5859375 C-13.9908799 22.86154105 -12.173167 25.889333 -9.1875 28.875 C-6.36447156 28.65784397 -4.67664217 28.25932599 -2.4375 26.5 C0.93521953 22.11546461 0.25743422 16.11448401 -0.1875 10.875 C-1.5706887 7.79426152 -2.8259567 6.2365433 -5.1875 3.875 C-8.39537475 3.54448473 -8.39537475 3.54448473 -10.8125 6.1875 Z " fill="#FFFFFF" transform="translate(92.1875,186.125)"/>
<path d="M0 0 C3.15178427 2.6742412 4.91333781 4.46560127 5.40307617 8.68261719 C5.38736572 9.79282227 5.37165527 10.90302734 5.35546875 12.046875 C5.34580078 13.25214844 5.33613281 14.45742187 5.32617188 15.69921875 C5.30103516 16.95347656 5.27589844 18.20773438 5.25 19.5 C5.22969727 21.40458984 5.22969727 21.40458984 5.20898438 23.34765625 C5.1736324 26.48219844 5.12428248 29.61588545 5.0625 32.75 C0.3125 32.875 0.3125 32.875 -1.9375 31.75 C-3.27252251 32.41327757 -4.60562014 33.08043427 -5.9375 33.75 C-10.21472925 34.33917111 -13.89082218 34.19539482 -17.875 32.5 C-21.06441091 29.79383317 -21.80912787 27.95669801 -22.25 23.8125 C-21.87256829 20.11366924 -21.42561979 18.53971007 -18.9375 15.75 C-13.70386376 13.13840507 -8.71826171 12.38101521 -2.9375 12.75 C-3.5975 10.44 -4.2575 8.13 -4.9375 5.75 C-7.78828091 4.98283149 -7.78828091 4.98283149 -10.9375 4.75 C-13.01880637 6.25715289 -13.79363218 7.46226437 -14.9375 9.75 C-16.5875 9.75 -18.2375 9.75 -19.9375 9.75 C-20.1875 6.4375 -20.1875 6.4375 -19.9375 2.75 C-14.93212487 -2.42797427 -6.35766767 -2.7053905 0 0 Z M-11.9375 19.75 C-12.75334568 22.80908413 -12.75334568 22.80908413 -12.9375 25.75 C-11.26261472 27.48647948 -11.26261472 27.48647948 -8.9375 28.75 C-6.54486593 28.08228817 -4.71652615 27.52902615 -2.9375 25.75 C-2.86601801 24.39756083 -2.85350546 23.04165633 -2.875 21.6875 C-2.895625 20.388125 -2.91625 19.08875 -2.9375 17.75 C-6.47762923 17.55332615 -9.08239381 17.50670228 -11.9375 19.75 Z " fill="#FFFFFF" transform="translate(337.9375,186.25)"/>
<path d="M0 0 C3.22859718 2.83725207 4.90604916 5.45535905 5.40307617 9.7668457 C5.38736572 10.82991943 5.37165527 11.89299316 5.35546875 12.98828125 C5.34580078 14.14521484 5.33613281 15.30214844 5.32617188 16.49414062 C5.30103516 17.69232422 5.27589844 18.89050781 5.25 20.125 C5.22969727 21.9512793 5.22969727 21.9512793 5.20898438 23.81445312 C5.17369261 26.81425345 5.12438481 29.81314975 5.0625 32.8125 C0.3125 32.9375 0.3125 32.9375 -1.9375 31.8125 C-3.27252251 32.47577757 -4.60562014 33.14293427 -5.9375 33.8125 C-10.21472925 34.40167111 -13.89082218 34.25789482 -17.875 32.5625 C-21.06441091 29.85633317 -21.80912787 28.01919801 -22.25 23.875 C-21.87256829 20.17616924 -21.42561979 18.60221007 -18.9375 15.8125 C-13.70386376 13.20090507 -8.71826171 12.44351521 -2.9375 12.8125 C-3.5975 10.5025 -4.2575 8.1925 -4.9375 5.8125 C-7.78828091 5.04533149 -7.78828091 5.04533149 -10.9375 4.8125 C-13.01880637 6.31965289 -13.79363218 7.52476437 -14.9375 9.8125 C-16.5875 9.8125 -18.2375 9.8125 -19.9375 9.8125 C-20.1875 6.5 -20.1875 6.5 -19.9375 2.8125 C-14.92028591 -2.37772147 -6.40491798 -2.58922216 0 0 Z M-11.9375 19.8125 C-12.75334568 22.87158413 -12.75334568 22.87158413 -12.9375 25.8125 C-11.26261472 27.54897948 -11.26261472 27.54897948 -8.9375 28.8125 C-6.54486593 28.14478817 -4.71652615 27.59152615 -2.9375 25.8125 C-2.86601801 24.46006083 -2.85350546 23.10415633 -2.875 21.75 C-2.895625 20.450625 -2.91625 19.15125 -2.9375 17.8125 C-6.47762923 17.61582615 -9.08239381 17.56920228 -11.9375 19.8125 Z " fill="#FFFFFF" transform="translate(493.9375,186.1875)"/>
<path d="M0 0 C4.28173156 2.78810427 5.44746537 4.78986148 6.6875 9.75 C6.6875 12.72 6.6875 15.69 6.6875 18.75 C0.0875 18.75 -6.5125 18.75 -13.3125 18.75 C-11.4553089 26.46211684 -11.4553089 26.46211684 -8.3125 27.75 C-5.29986238 28.16081422 -3.19794367 28.32293414 -0.5859375 26.6328125 C0.88860211 25.39587643 2.29378788 24.07734487 3.6875 22.75 C4.3475 23.08 5.0075 23.41 5.6875 23.75 C5.38929167 27.32849992 4.94504642 28.51226484 2.25 31 C-2.3474501 34.13972202 -5.83385623 34.24889842 -11.3125 33.75 C-16.52690424 31.97907026 -18.63870669 29.50341032 -21.3125 24.75 C-23.43334554 18.38746339 -22.92135185 11.58919035 -20.30078125 5.44140625 C-15.9668489 -1.97595622 -7.38155 -2.78549057 0 0 Z M-10.375 4.8125 C-13.10461246 7.54211246 -13.02921684 9.9964981 -13.3125 13.75 C-9.6825 13.75 -6.0525 13.75 -2.3125 13.75 C-2.65316313 8.97564536 -2.65316313 8.97564536 -4.75 4.8125 C-7.0585001 3.24271993 -7.92478089 3.55026591 -10.375 4.8125 Z " fill="#FFFFFF" transform="translate(549.3125,186.25)"/>
<path d="M0 0 C3.27273717 2.61818974 5.03216816 4.41247592 5.52807617 8.68261719 C5.5045105 10.3479248 5.5045105 10.3479248 5.48046875 12.046875 C5.4659668 13.85478516 5.4659668 13.85478516 5.45117188 15.69921875 C5.42603516 16.95347656 5.40089844 18.20773438 5.375 19.5 C5.35469727 21.40458984 5.35469727 21.40458984 5.33398438 23.34765625 C5.2986324 26.48219844 5.24928248 29.61588545 5.1875 32.75 C2.5475 32.75 -0.0925 32.75 -2.8125 32.75 C-2.82651855 31.69087402 -2.82651855 31.69087402 -2.84082031 30.61035156 C-2.89455659 27.40619455 -2.97819757 24.20349243 -3.0625 21 C-3.07667969 19.88882813 -3.09085938 18.77765625 -3.10546875 17.6328125 C-3.13769531 16.56289062 -3.16992188 15.49296875 -3.203125 14.390625 C-3.22407227 13.40610352 -3.24501953 12.42158203 -3.26660156 11.40722656 C-3.94523857 8.10387897 -5.27039577 6.88465895 -7.8125 4.75 C-10.1225 5.41 -12.4325 6.07 -14.8125 6.75 C-14.8125 15.33 -14.8125 23.91 -14.8125 32.75 C-17.4525 32.75 -20.0925 32.75 -22.8125 32.75 C-23.1425 23.51 -23.4725 14.27 -23.8125 4.75 C-26.2875 3.76 -26.2875 3.76 -28.8125 2.75 C-28.8125 1.76 -28.8125 0.77 -28.8125 -0.25 C-23.8125 -0.25 -18.8125 -0.25 -13.8125 -0.25 C-8.98799824 -1.85816725 -4.6231662 -2.05474053 0 0 Z " fill="#FFFFFF" transform="translate(217.8125,186.25)"/>
<path d="M0 0 C3.7647859 2.45148849 5.2764566 4.51686981 6.6875 8.75 C6.6875 12.05 6.6875 15.35 6.6875 18.75 C0.0875 18.75 -6.5125 18.75 -13.3125 18.75 C-11.02433213 25.28576165 -11.02433213 25.28576165 -8.3125 27.75 C-5.27414002 28.23337545 -3.22258395 28.34093686 -0.5859375 26.62890625 C0.88965171 25.39458637 2.29442177 24.07674117 3.6875 22.75 C4.6775 23.74 5.6675 24.73 6.6875 25.75 C0.81581574 33.25270766 0.81581574 33.25270766 -4.42578125 34.0859375 C-10.26767402 34.18970114 -13.58536269 33.24808161 -18.3125 29.75 C-22.4344695 24.25404066 -22.93470989 18.43592814 -22.3125 11.75 C-20.65908684 6.52869528 -18.48377942 3.29558751 -14.3125 -0.25 C-9.23484424 -1.94255192 -4.93564185 -1.86250636 0 0 Z M-10.375 5.375 C-12.67379314 8.19287547 -12.98756385 10.1757023 -13.3125 13.75 C-9.6825 13.75 -6.0525 13.75 -2.3125 13.75 C-1.97586938 10.04706315 -1.83513985 8.35465619 -4.1875 5.375 C-7.02498279 3.20516022 -7.56642085 3.16218006 -10.375 5.375 Z " fill="#FFFFFF" transform="translate(306.3125,186.25)"/>
<path d="M0 0 C2.79626784 1.72710661 3.8017708 3.31782339 5.125 6.3125 C5.3125 9.125 5.3125 9.125 5.125 11.3125 C3.805 11.3125 2.485 11.3125 1.125 11.3125 C0.691875 10.508125 0.25875 9.70375 -0.1875 8.875 C-1.71465028 5.92385392 -1.71465028 5.92385392 -5.4375 5.4375 C-8.73466091 5.04257156 -8.73466091 5.04257156 -10.875 6.3125 C-10.8628299 8.21921614 -10.8628299 8.21921614 -9.875 10.3125 C-6.67859891 12.28053208 -3.36201359 13.81593364 0.0234375 15.43359375 C3.3487328 17.44803587 4.59529937 18.77817363 6.125 22.3125 C6.05457811 26.3265475 5.75400051 28.51576603 3.25 31.6875 C-1.47868326 35.3035519 -7.18520827 34.79138404 -12.875 34.3125 C-17.84642857 32.34107143 -17.84642857 32.34107143 -19.875 30.3125 C-20.01615161 27.64191149 -19.91747107 24.98817762 -19.875 22.3125 C-18 22.5625 -18 22.5625 -15.875 23.3125 C-14.75 25.3125 -14.75 25.3125 -13.875 27.3125 C-11.46954362 28.51522819 -9.92503047 28.41321472 -7.25 28.375 C-6.43273437 28.36597656 -5.61546875 28.35695312 -4.7734375 28.34765625 C-4.14695312 28.33605469 -3.52046875 28.32445312 -2.875 28.3125 C-2.83263404 25.91756647 -2.83263404 25.91756647 -3.875 23.3125 C-6.22104598 21.85919718 -8.30434582 20.76135788 -10.8125 19.6875 C-17.63985149 16.66522277 -17.63985149 16.66522277 -19.875 13.3125 C-20.66493519 6.31593119 -20.66493519 6.31593119 -17.5625 2.375 C-12.33327231 -1.63812823 -6.23485042 -1.49094249 0 0 Z " fill="#FFFFFF" transform="translate(440.875,185.6875)"/>
<path d="M0 0 C2.64 0 5.28 0 8 0 C8 22.44 8 44.88 8 68 C5.36 68 2.72 68 0 68 C0 45.56 0 23.12 0 0 Z " fill="#FFFFFF" transform="translate(310,50)"/>
<path d="M0 0 C7.92 0 15.84 0 24 0 C24 9.99920389 24 9.99920389 20.18920898 13.85644531 C19.65239502 14.35756836 19.11558105 14.85869141 18.5625 15.375 C17.45808432 16.47892374 16.35655684 17.58574389 15.2578125 18.6953125 C14.70770508 19.24219727 14.15759766 19.78908203 13.59082031 20.35253906 C10.3985971 23.65842031 7.65489756 27.32553239 4.83984375 30.953125 C3 33 3 33 0 34 C0 22.78 0 11.56 0 0 Z " fill="#BD9B5F" transform="translate(236,22)"/>
<path d="M0 0 C0 3.3 0 6.6 0 10 C2.64 10 5.28 10 8 10 C8 11.65 8 13.3 8 15 C5.36 15 2.72 15 0 15 C0.33 22.26 0.66 29.52 1 37 C5.71058562 38.3721042 5.71058562 38.3721042 9 37 C9.33 38.65 9.66 40.3 10 42 C5.93854526 44.03072737 1.45960657 45.20781011 -3 44 C-5.73046875 42.2421875 -5.73046875 42.2421875 -8 39 C-8.61475485 34.87932775 -8.47032226 30.84186743 -8.3125 26.6875 C-8.27866211 25.00430664 -8.27866211 25.00430664 -8.24414062 23.28710938 C-8.18533776 20.52337464 -8.10320401 17.76237446 -8 15 C-9.65 15 -11.3 15 -13 15 C-13 13.35 -13 11.7 -13 10 C-11.35 10 -9.7 10 -8 10 C-8.061875 8.906875 -8.12375 7.81375 -8.1875 6.6875 C-8 3 -8 3 -6.8125 1.0625 C-5 0 -5 0 0 0 Z " fill="#FFFFFF" transform="translate(516,176)"/>
<path d="M0 0 C0 3.3 0 6.6 0 10 C2.64 10 5.28 10 8 10 C8 11.65 8 13.3 8 15 C5.36 15 2.72 15 0 15 C0.13888506 18.27116732 0.28730492 21.541834 0.4375 24.8125 C0.47681641 25.74126953 0.51613281 26.67003906 0.55664062 27.62695312 C0.61948242 28.9659668 0.61948242 28.9659668 0.68359375 30.33203125 C0.72025146 31.15421143 0.75690918 31.9763916 0.79467773 32.82348633 C0.93427772 35.17905178 0.93427772 35.17905178 2 38 C4.64 37.67 7.28 37.34 10 37 C10.33 38.32 10.66 39.64 11 41 C6.49636698 44.37772476 3.44178833 44.43188796 -2 44 C-4.66996106 43.1568544 -5.61117068 42.62080234 -7.08935547 40.26074219 C-8.18238346 37.54721962 -8.22777104 35.4993933 -8.1953125 32.578125 C-8.18886719 31.55332031 -8.18242187 30.52851563 -8.17578125 29.47265625 C-8.15902344 28.40917969 -8.14226562 27.34570312 -8.125 26.25 C-8.11597656 25.17105469 -8.10695313 24.09210938 -8.09765625 22.98046875 C-8.07411305 20.32008722 -8.04122799 17.66015664 -8 15 C-9.32 15 -10.64 15 -12 15 C-12 13.35 -12 11.7 -12 10 C-10.68 10 -9.36 10 -8 10 C-8.061875 9.0925 -8.12375 8.185 -8.1875 7.25 C-7.82825263 1.02304552 -6.18862289 0 0 0 Z " fill="#FFFFFF" transform="translate(461,176)"/>
<path d="M0 0 C1.58179615 -0.10867302 3.16577153 -0.18589827 4.75 -0.25 C5.63171875 -0.29640625 6.5134375 -0.3428125 7.421875 -0.390625 C10 0 10 0 12.13671875 1.42578125 C14.95695141 5.32207753 14.49844553 8.88798462 14.390625 13.578125 C14.38496521 14.5046991 14.37930542 15.43127319 14.37347412 16.38592529 C14.35110921 19.34114562 14.30091262 22.29514705 14.25 25.25 C14.22993515 27.2551908 14.21168435 29.26040064 14.1953125 31.265625 C14.151244 36.17755194 14.08221555 41.08856942 14 46 C11.36 46 8.72 46 6 46 C5.97494385 44.82904785 5.9498877 43.6580957 5.92407227 42.45166016 C5.83006297 38.11674622 5.72982659 33.78199496 5.62768555 29.44726562 C5.58431211 27.56937458 5.54263882 25.69144348 5.50268555 23.81347656 C5.44504124 21.1177156 5.38133019 18.42215673 5.31640625 15.7265625 C5.29969376 14.88380768 5.28298126 14.04105286 5.26576233 13.17276001 C5.26763856 8.9513339 5.26763856 8.9513339 4 5 C1.97536745 4.34786708 1.97536745 4.34786708 0 4 C0 2.68 0 1.36 0 0 Z " fill="#FFFFFF" transform="translate(345,173)"/>
<path d="M0 0 C2.875 2.5 2.875 2.5 5 5 C3.68 6.32 2.36 7.64 1 9 C0.0925 8.62875 -0.815 8.2575 -1.75 7.875 C-5.21799438 6.55536066 -5.21799438 6.55536066 -9 9 C-9.33 17.25 -9.66 25.5 -10 34 C-12.64 34 -15.28 34 -18 34 C-18.33 24.43 -18.66 14.86 -19 5 C-20.32 4.67 -21.64 4.34 -23 4 C-23 3.01 -23 2.02 -23 1 C-21.39592672 0.97291433 -19.7917215 0.95356517 -18.1875 0.9375 C-17.29417969 0.92589844 -16.40085937 0.91429687 -15.48046875 0.90234375 C-13 1 -13 1 -10 2 C-9.401875 1.690625 -8.80375 1.38125 -8.1875 1.0625 C-5.1896109 -0.39361756 -3.29840909 -0.4712013 0 0 Z " fill="#FFFFFF" transform="translate(64,185)"/>
<path d="M0 0 C2.64 0 5.28 0 8 0 C8 12.21 8 24.42 8 37 C5.36 37 2.72 37 0 37 C0 24.79 0 12.58 0 0 Z " fill="#FFFFFF" transform="translate(271,61)"/>
<path d="M0 0 C2.9375 0.75 2.9375 0.75 4.9375 2.75 C5.494375 2.234375 6.05125 1.71875 6.625 1.1875 C8.9375 -0.25 8.9375 -0.25 11.5625 -0.0625 C13.9375 0.75 13.9375 0.75 15.9375 2.75 C16.1875 5.75 16.1875 5.75 15.9375 8.75 C13.9375 10.75 13.9375 10.75 10.4375 11 C6.9375 10.75 6.9375 10.75 4.9375 8.75 C3.9475 9.41 2.9575 10.07 1.9375 10.75 C-1.125 11 -1.125 11 -4.0625 10.75 C-6.0625 8.75 -6.0625 8.75 -6.375 5.25 C-6.271875 4.095 -6.16875 2.94 -6.0625 1.75 C-3.0625 -0.25 -3.0625 -0.25 0 0 Z " fill="#FFFFFF" transform="translate(56.0625,152.25)"/>
<path d="M0 0 C2.9375 0.8125 2.9375 0.8125 4.9375 3.8125 C4.75 6.875 4.75 6.875 3.9375 9.8125 C0.9375 11.8125 0.9375 11.8125 -2.125 11.625 C-5.0625 10.8125 -5.0625 10.8125 -7.0625 7.8125 C-6.875 4.75 -6.875 4.75 -6.0625 1.8125 C-3.0625 -0.1875 -3.0625 -0.1875 0 0 Z " fill="#FFFFFF" transform="translate(549.0625,151.1875)"/>
<path d="M0 0 C3 0.4375 3 0.4375 4.9375 1.5 C6.61676907 4.56219653 5.68621125 7.13120941 5 10.4375 C-0.27308448 12.59467092 -0.27308448 12.59467092 -3.3125 11.9375 C-5 10.4375 -5 10.4375 -5.9375 7.5625 C-6 4.4375 -6 4.4375 -4.9375 2.0625 C-3 0.4375 -3 0.4375 0 0 Z " fill="#FFFFFF" transform="translate(355,89.5625)"/>
<path d="M0 0 C3.0625 0.3125 3.0625 0.3125 4.9375 1.5 C6.46909584 3.96757108 6.49072025 5.45769831 6.0625 8.3125 C5 10.1875 5 10.1875 3.0625 11.3125 C-0.5625 11.125 -0.5625 11.125 -3.9375 10.3125 C-5.31875018 7.54999964 -5.12829306 5.36518901 -4.9375 2.3125 C-2.9375 0.3125 -2.9375 0.3125 0 0 Z " fill="#FFFFFF" transform="translate(162.9375,90.6875)"/>
<path d="M0 0 C3.0625 0.3125 3.0625 0.3125 4.9375 1.5 C6.46909584 3.96757108 6.49072025 5.45769831 6.0625 8.3125 C5 10.1875 5 10.1875 3.0625 11.3125 C-0.5625 11.125 -0.5625 11.125 -3.9375 10.3125 C-5.31875018 7.54999964 -5.12829306 5.36518901 -4.9375 2.3125 C-2.9375 0.3125 -2.9375 0.3125 0 0 Z " fill="#FFFFFF" transform="translate(30.9375,90.6875)"/>
<path d="M0 0 C3 0.25 3 0.25 5 2.25 C5.3125 5.75 5.3125 5.75 5 9.25 C2 11.25 2 11.25 -1.0625 11.0625 C-4 10.25 -4 10.25 -6 7.25 C-5.5601518 2.74155593 -4.87125629 0.40593802 0 0 Z " fill="#FFFFFF" transform="translate(152,90.75)"/>
<path d="M0 0 C3 0.25 3 0.25 5 2.25 C5.3125 5.75 5.3125 5.75 5 9.25 C2 11.25 2 11.25 -1.0625 11.0625 C-4 10.25 -4 10.25 -6 7.25 C-5.5601518 2.74155593 -4.87125629 0.40593802 0 0 Z " fill="#FFFFFF" transform="translate(20,90.75)"/>
<path d="M0 0 C1.65 0.33 3.3 0.66 5 1 C5.33 1.99 5.66 2.98 6 4 C5.01 5.485 5.01 5.485 4 7 C2.35 6.67 0.7 6.34 -1 6 C-1.33 5.01 -1.66 4.02 -2 3 C-1.34 2.01 -0.68 1.02 0 0 Z " fill="#FFFFFF" transform="translate(559,105)"/>
</svg>
